<svg width="36" height="36" viewBox="0 0 36 36" fill="none" xmlns="http://www.w3.org/2000/svg">
<rect width="36" height="36" rx="18" fill="#E6E4E4"/>
<mask id="mask0_89_1376" style="mask-type:luminance" maskUnits="userSpaceOnUse" x="4" y="4" width="28" height="28">
<path d="M32 4H4V32H32V4Z" fill="white"/>
</mask>
<g mask="url(#mask0_89_1376)">
<path opacity="0.9" d="M9.91104 16.1333C9.45215 17.9533 6.81548 17.1709 6.27571 18.9333C5.73748 20.6989 7.52482 22.0444 9.00259 22.0444" stroke="#2A3544" stroke-width="0.933333"/>
<path opacity="0.9" d="M27.3333 22.8218C28.6399 23.3647 30.4599 21.6396 29.8221 20.2552C29.1844 18.8707 27.3333 19.2129 27.3333 17.2529" stroke="#2A3544" stroke-width="0.622222"/>
<mask id="mask1_89_1376" style="mask-type:alpha" maskUnits="userSpaceOnUse" x="7" y="15" width="22" height="10">
<path d="M25.4666 15.1997C25.3841 15.1997 25.305 15.2325 25.2466 15.2908C25.1883 15.3492 25.1555 15.4283 25.1555 15.5108V17.6886C25.1555 17.8597 25.2955 17.9997 25.4666 17.9997H28.4222C28.5047 17.9997 28.5838 17.9669 28.6421 17.9086C28.7005 17.8502 28.7333 17.7711 28.7333 17.6886V15.5108C28.7333 15.4283 28.7005 15.3492 28.6421 15.2908C28.5838 15.2325 28.5047 15.1997 28.4222 15.1997H25.4666ZM7.2666 20.0219C7.2666 19.8508 7.4066 19.7108 7.57771 19.7108H9.44438C9.52689 19.7108 9.60602 19.7436 9.66437 19.8019C9.72271 19.8603 9.75549 19.9394 9.75549 20.0219V22.8219C9.75549 22.9044 9.72271 22.9836 9.66437 23.0419C9.60602 23.1003 9.52689 23.133 9.44438 23.133H7.57771C7.4952 23.133 7.41607 23.1003 7.35772 23.0419C7.29938 22.9836 7.2666 22.9044 7.2666 22.8219V20.0219ZM25.1555 21.1108C25.1555 20.9397 25.2955 20.7997 25.4666 20.7997H28.4222C28.5047 20.7997 28.5838 20.8325 28.6421 20.8908C28.7005 20.9492 28.7333 21.0283 28.7333 21.1108V23.9108C28.7333 23.9933 28.7005 24.0725 28.6421 24.1308C28.5838 24.1892 28.5047 24.2219 28.4222 24.2219H25.4666C25.3841 24.2219 25.305 24.1892 25.2466 24.1308C25.1883 24.0725 25.1555 23.9933 25.1555 23.9108V21.1108Z" fill="#273951"/>
</mask>
<g mask="url(#mask1_89_1376)">
<path d="M4 14.2661H32V26.0883H4V14.2661Z" fill="#00897B"/>
<path d="M4 14.2661H32V26.0883H4V14.2661Z" fill="white" fill-opacity="0.3"/>
</g>
<g filter="url(#filter0_di_89_1376)">
<path fill-rule="evenodd" clip-rule="evenodd" d="M15.0444 9.13308C15.0444 8.30797 15.3722 7.51664 15.9557 6.9332C16.5391 6.34975 17.3304 6.02197 18.1555 6.02197C18.9807 6.02197 19.772 6.34975 20.3554 6.9332C20.9389 7.51664 21.2667 8.30797 21.2667 9.13308V10.8442H15.0444V9.13308Z" fill="white" fill-opacity="0.3"/>
</g>
<path d="M18.1554 9.60007C18.4991 9.60007 18.7776 9.1822 18.7776 8.66673C18.7776 8.15127 18.4991 7.7334 18.1554 7.7334C17.8118 7.7334 17.5332 8.15127 17.5332 8.66673C17.5332 9.1822 17.8118 9.60007 18.1554 9.60007Z" fill="white" fill-opacity="0.6"/>
<path d="M18.1555 6.41113C18.9224 6.41113 19.6131 6.74247 20.0906 7.2698M20.4686 7.81424C20.5775 8.01647 20.6569 8.23891 20.7066 8.47224" stroke="white" stroke-width="0.311111" stroke-linecap="round"/>
<path d="M22.6665 9.6001H13.6443C13.5584 9.6001 13.4888 9.66974 13.4888 9.75565V11.9334C13.4888 12.0193 13.5584 12.089 13.6443 12.089H22.6665C22.7525 12.089 22.8221 12.0193 22.8221 11.9334V9.75565C22.8221 9.66974 22.7525 9.6001 22.6665 9.6001Z" fill="#48494B"/>
<mask id="mask2_89_1376" style="mask-type:luminance" maskUnits="userSpaceOnUse" x="7" y="10" width="22" height="20">
<path fill-rule="evenodd" clip-rule="evenodd" d="M7.88892 15.6669V15.5114C7.91692 15.4367 7.95114 15.2781 8.04447 15.0447C8.17358 14.5687 8.47692 14.0243 8.9778 13.4892C10.4867 11.8714 13.3598 10.8447 18 10.8447C22.6402 10.8447 25.5134 11.8714 27.0222 13.4892C27.5231 14.0243 27.8265 14.5687 27.9556 15.0447C28.0489 15.2781 28.0831 15.4367 28.1111 15.5114V21.7336C28.1111 21.7181 28.1065 21.8114 28.1111 21.8892C28.0769 22.203 28.025 22.5146 27.9556 22.8225C27.7705 23.7558 27.4267 24.6752 26.8667 25.4669C25.3547 28.0087 22.5516 29.5114 18 29.5114C13.4485 29.5114 10.6454 28.0087 9.13336 25.4669C8.57336 24.6752 8.23114 23.7558 8.04447 22.8225C7.97511 22.5146 7.92317 22.203 7.88892 21.8892C7.89358 21.8192 7.88892 21.6838 7.88892 21.7336V15.6669Z" fill="white"/>
</mask>
<g mask="url(#mask2_89_1376)">
<path d="M7.2666 10.5332H28.7333V29.8221H7.2666V10.5332Z" fill="#00897B"/>
<path d="M26.0796 10.0669C26.2202 10.0457 26.3542 9.99304 26.4716 9.9129L26.5914 9.89423C27.0145 9.8289 28.1376 9.65623 28.3414 9.83201C28.4736 9.94868 28.4145 10.3593 28.3725 10.6533C28.3554 10.7653 28.3414 10.8618 28.3414 10.9178C28.1345 10.9271 27.9774 10.7 27.825 10.4776C27.5979 10.1478 27.377 9.8289 27.0161 10.3127C26.845 10.5398 26.8839 10.826 26.9228 11.1185C26.9663 11.4265 27.0083 11.7391 26.8076 11.9927C26.5681 12.2929 26.1854 12.3349 25.809 12.3769C25.4108 12.4205 25.0156 12.464 24.801 12.8125C24.7388 12.9151 24.7232 13.0925 24.7045 13.2869C24.6734 13.6213 24.6376 13.9993 24.3545 14.0865C23.8692 14.2373 23.8381 13.8236 23.8101 13.4642C23.7961 13.2698 23.7821 13.0909 23.7012 13.0225C22.8145 12.2913 22.7321 13.7022 22.7134 14.0227V14.0273C22.7088 14.0942 22.7212 14.1487 22.7321 14.1985C22.7523 14.2871 22.7679 14.3618 22.6808 14.4676C22.6341 14.5236 22.5719 14.5142 22.5065 14.5033C22.4396 14.494 22.3681 14.4831 22.309 14.5391C22.0756 14.7569 22.0694 14.7787 22.0165 15.0229L22.0025 15.0805C21.9854 15.1629 21.973 15.2345 21.9636 15.2982C21.9419 15.4445 21.9232 15.558 21.833 15.7089C21.791 15.7789 21.735 15.8473 21.6774 15.9158C21.4908 16.1429 21.3056 16.3669 21.6556 16.6453C21.5608 16.6453 20.7223 16.8725 20.6679 16.9005C20.587 16.9425 20.4936 17.0529 20.4096 17.1509C20.36 17.2213 20.2978 17.282 20.2261 17.3298C19.7283 17.5009 19.7641 17.1307 19.7999 16.748C19.8216 16.5178 19.8434 16.2845 19.7501 16.1616C21.0381 16.1196 21.8128 14.8845 21.889 13.9247C21.8899 13.7884 21.855 13.6543 21.7879 13.5358C21.7443 13.4393 21.7039 13.3491 21.7023 13.2558C21.6992 13.1267 21.7412 13.038 21.7832 12.9493C21.8174 12.8762 21.8516 12.8047 21.861 12.7098C21.8968 12.2991 21.7288 12.1482 21.5079 11.9491C21.399 11.8496 21.2745 11.7391 21.1563 11.5758C20.7674 11.0391 20.9696 10.9551 21.5608 11.0531C21.8983 11.1091 22.2234 11.2087 22.5501 11.3067C22.9483 11.428 23.3465 11.5493 23.7696 11.5913C24.311 11.6442 24.8134 11.6193 25.0701 11.1776C25.2179 10.924 25.2832 10.224 24.7901 10.1696C24.9145 10.1493 25.0141 10.1105 25.1168 10.07C25.2655 10.004 25.4243 9.96351 25.5865 9.95023C25.7421 10.0125 25.907 10.0498 26.0781 10.0653L26.0796 10.0669ZM12.7703 24.14C12.7859 24.1462 12.803 24.1462 12.8232 24.14C12.7952 24.1602 12.7516 24.1431 12.7656 24.14H12.7703ZM28.1796 30.3653C28.1268 30.3607 28.1283 30.3591 28.1796 30.356C28.1905 30.3125 28.2045 30.2673 28.2201 30.2238C28.2528 30.1196 28.2823 30.0278 28.2248 30.006C28.4005 29.9733 28.3679 30.286 28.3492 30.4665C28.3445 30.51 28.3414 30.5442 28.3414 30.566C28.1765 30.566 28.1579 30.4742 28.1796 30.3638V30.3653Z" fill="black" fill-opacity="0.2"/>
<path d="M28.1919 30.2548V30.2486C28.1235 30.2533 28.1235 30.2548 28.1919 30.2595V30.2564V30.2548ZM14.2122 9.8335C14.2728 9.84438 14.4455 9.8615 14.5031 9.8335H14.2122ZM13.8015 18.6971C13.6366 18.6582 13.5775 18.5539 13.5324 18.4762C13.5075 18.4326 13.4857 18.3984 13.4546 18.3859C13.0144 18.2226 12.9428 18.5291 12.8682 19.0051C12.8526 19.0922 12.8511 19.1653 12.8479 19.2337C12.8402 19.4017 12.8355 19.5293 12.6784 19.6911C12.5882 19.7844 12.4419 19.8326 12.2973 19.8808C12.196 19.9099 12.0984 19.9507 12.0064 20.0022C11.7777 20.1468 11.6766 20.2791 11.5522 20.4424C11.5024 20.5046 11.4495 20.5746 11.3842 20.6508C11.2348 20.8235 11.0171 20.9915 10.7899 21.1642C10.1833 21.6277 9.51439 22.1364 9.96239 22.9375C10.4446 23.8008 10.6344 23.0728 10.7822 22.5097C10.8382 22.2935 10.8879 22.1022 10.9455 22.0353C11.6719 21.1844 11.8291 22.0166 11.9239 22.5144C11.9395 22.5953 11.9519 22.6684 11.9659 22.7228C12.1697 23.5053 12.4482 22.9406 12.6784 22.4771C12.7468 22.3371 12.8122 22.2064 12.8682 22.1224C12.9366 22.0244 13.0222 21.9513 13.1046 21.8813C13.2132 21.8027 13.3025 21.7006 13.3659 21.5826C13.4033 21.5017 13.3846 21.4006 13.3659 21.2964C13.3348 21.1253 13.3037 20.9464 13.5168 20.8375C13.7424 20.7239 14.0022 20.8624 14.2324 20.9868C14.4082 21.0802 14.5668 21.1673 14.6835 21.1268C15.0459 20.9977 14.7193 20.5668 14.4579 20.2215C14.3366 20.0628 14.2308 19.9213 14.2106 19.8373C14.1546 19.5915 14.2542 19.3784 14.3522 19.1653C14.4517 18.9506 14.5513 18.7344 14.4922 18.4855C14.3895 18.5011 14.3008 18.5477 14.2122 18.5975C14.0877 18.6659 13.9617 18.7344 13.7999 18.6971H13.8015ZM22.6495 21.9979C22.7086 21.5842 22.3804 21.3726 22.0428 21.1533C21.9339 21.0833 21.8266 21.0133 21.7286 20.9355C21.5062 20.7597 21.3553 20.6135 21.2433 20.3662C21.2246 20.3057 21.2157 20.2427 21.2168 20.1795C21.2106 20.0722 21.2044 19.9617 21.1515 19.9228C20.8637 19.7253 20.7035 19.8606 20.5091 20.0255C20.4157 20.1033 20.3162 20.1888 20.1917 20.2464C19.7686 20.4393 19.7639 20.4362 19.5104 20.2868C19.4591 20.2557 19.3984 20.2199 19.3206 20.1779L19.2102 20.1157C18.9768 19.9757 18.8119 19.8777 18.5257 20.2822C18.4122 20.4439 18.4168 20.7286 18.4231 21.0242C18.4339 21.5188 18.4448 22.0462 17.8911 22.0773C18.1353 22.1846 18.0248 22.5035 17.9128 22.8286C17.7977 23.1631 17.6811 23.5037 17.9486 23.6219C18.5988 23.9066 18.7886 22.5548 18.8959 21.7817C18.9317 21.5266 18.9582 21.3337 18.9893 21.2839C19.2491 20.8764 20.1762 20.5279 20.4422 21.1315C20.4904 21.2404 20.4546 21.3555 20.4188 21.4737C20.3846 21.5873 20.3488 21.7024 20.3877 21.8159C20.4453 21.9762 20.5386 22.0353 20.6475 22.1053C20.7066 22.1411 20.7688 22.1815 20.8326 22.2406C21.2837 22.6622 21.2666 22.6886 21.0411 23.0464L20.9073 23.2642C20.8606 23.3482 20.8202 23.4788 20.7782 23.6235C20.6833 23.9502 20.5682 24.3437 20.2726 24.3888C20.4344 24.3873 20.6039 24.4262 20.7704 24.4666C21.0908 24.5397 21.4051 24.6128 21.6431 24.3966C21.8095 24.2457 21.7815 23.9735 21.7535 23.7122C21.7364 23.5426 21.7193 23.3777 21.7582 23.2564C21.8266 23.0355 22.0117 22.8519 22.1953 22.6699C22.4037 22.4615 22.6122 22.2562 22.6495 21.9979ZM10.6733 26.9368C10.6779 27.0115 10.6842 27.0971 10.7013 27.2013C10.7635 27.5871 10.9362 27.8079 11.1602 28.0879V28.0895L11.3079 28.2762C10.6282 28.2886 10.0946 28.9948 10.8351 29.3931C10.5348 29.2328 10.3077 29.4117 10.1226 29.5595C9.89083 29.7446 9.72595 29.8753 9.56728 29.2064L9.52372 29.0353C9.48795 28.9015 9.44906 28.7491 9.4335 28.6464C9.40083 28.4224 9.4055 28.3959 9.43195 28.2731L9.4475 28.1999C9.45995 28.1268 9.48795 28.0771 9.51439 28.0304C9.56883 27.9324 9.61239 27.8515 9.49417 27.6151C9.43195 27.4922 9.35728 27.3973 9.28572 27.3055C9.1535 27.1406 9.03683 26.9913 9.03995 26.7253C9.03995 26.6506 9.07261 26.5915 9.10683 26.5277C9.16439 26.4219 9.22817 26.3022 9.16595 26.0735C9.12397 25.9402 9.06764 25.8119 8.99795 25.6908C8.92017 25.5399 8.84083 25.3891 8.81128 25.2257C9.09283 25.2382 9.27172 25.4513 9.43039 25.6426C9.48639 25.7111 9.54083 25.7748 9.59683 25.8277C9.72128 25.9444 9.86906 26.0268 10.0153 26.1077C10.1397 26.1777 10.2642 26.2477 10.3637 26.3333C10.6437 26.5791 10.6531 26.7066 10.6717 26.9399L10.6733 26.9368ZM11.5724 24.8913C11.8042 24.9099 12.4248 24.4028 12.4653 24.2582C12.2646 24.2955 12.0608 24.2022 11.8617 24.1119C11.6377 24.0093 11.4199 23.9097 11.2177 23.9984C10.8599 24.1539 11.2411 24.8633 11.5724 24.8913ZM20.6506 25.1433C20.3971 25.1899 20.1077 25.2428 19.9382 25.1433C19.7733 25.0468 19.4466 24.6331 19.9226 24.6564C20.0439 24.7031 20.1824 24.7342 20.3208 24.7622C20.6117 24.8244 20.8964 24.8866 20.9757 25.0982C20.8871 25.1013 20.7735 25.1215 20.6506 25.1448V25.1433ZM17.4711 21.4208C17.3404 21.4131 17.2191 21.3897 17.1071 21.3679C16.7711 21.3042 16.5237 21.2559 16.4179 21.6993C16.5922 21.6915 16.7648 21.7382 16.9204 21.7771C17.2486 21.8642 17.4928 21.9279 17.4695 21.4193L17.4711 21.4208ZM21.9775 27.0908C21.8655 27.0348 21.7597 26.9819 21.6773 26.9757C21.7831 26.9602 21.8017 26.8559 21.8204 26.7579C21.8359 26.6771 21.8515 26.5993 21.9153 26.5775C21.9417 26.5853 21.9713 26.5931 22.0055 26.5993C22.2793 26.6631 22.7646 26.7766 22.6448 27.0379C22.5002 27.3553 22.2233 27.2153 21.9759 27.0908H21.9775Z" fill="black" fill-opacity="0.2"/>
<path d="M11.3143 28.2899C11.1992 28.2961 11.2769 28.321 11.3252 28.3273L11.3143 28.2899ZM17.7621 20.8201C17.8912 20.7315 17.8865 20.3224 17.6921 20.3053C17.4198 20.3659 17.5583 20.9586 17.7621 20.8186V20.8201ZM27.8934 16.0477C27.8981 16.1395 28.2978 16.5299 28.3414 16.5268C28.3414 16.5159 28.3445 16.4864 28.3507 16.4475C28.3772 16.2468 28.4425 15.7755 28.2185 15.8813C28.1798 15.9009 28.1429 15.9238 28.1081 15.9497C28.0427 15.9964 27.9758 16.043 27.8934 16.0477ZM11.0965 30.5781C10.2969 30.5781 10.5816 30.2064 10.7947 30.3215C10.8414 30.3464 10.8803 30.3899 10.9207 30.4319C10.9674 30.4817 11.0141 30.5315 11.0701 30.5533C11.0841 30.5595 11.0872 30.5641 11.0918 30.5688C11.0918 30.5735 11.0949 30.575 11.0965 30.5781ZM7.6245 10.5519C7.62606 10.485 7.24806 10.3668 7.46895 10.5193C7.44717 10.5037 7.46428 10.5115 7.49539 10.5239C7.54206 10.5441 7.6245 10.5768 7.6245 10.5519ZM26.9243 17.4944C26.6863 17.429 27.3318 17.4586 27.2509 17.639C27.1856 17.6313 27.1281 17.597 27.0705 17.5628C27.0238 17.5364 26.9772 17.5084 26.9243 17.4944Z" fill="black" fill-opacity="0.2"/>
<path d="M13.6632 14.8497C13.7005 14.7315 13.6398 14.6008 13.5807 14.4701C13.5309 14.3612 13.4812 14.2524 13.4858 14.1512C13.4889 14.0548 13.5589 13.879 13.6258 13.7126C13.6785 13.5878 13.7222 13.4594 13.7565 13.3284C13.8809 12.8259 14.1143 11.8692 14.9543 12.3141C14.2807 11.9564 14.5576 11.6732 14.8672 11.3575C14.9908 11.242 15.0985 11.1108 15.1876 10.967C15.2498 10.8519 15.2996 10.799 15.3292 10.7695C15.3463 10.7508 15.3572 10.7399 15.3587 10.729C15.3587 10.7135 15.3432 10.6948 15.3058 10.6512L15.2436 10.5812C15.1518 10.4724 14.5001 10.3246 14.3445 10.3277C13.7503 10.3417 13.1032 10.9032 12.8045 11.3575C12.6443 11.6001 12.7003 11.7355 12.7532 11.8646C12.7843 11.9424 12.8154 12.017 12.7998 12.1135C12.7921 12.1524 12.7967 12.1912 12.7998 12.2286C12.8138 12.3421 12.8247 12.4386 12.4872 12.4572C12.0672 12.4806 11.2785 11.7837 11.2738 11.4415C11.2738 11.3279 11.3952 11.1988 11.5181 11.0681C11.7358 10.841 11.9521 10.6108 11.4854 10.4661C11.1369 10.3572 10.0807 11.0572 10.0154 11.3217C9.97495 11.4866 10.0932 11.6639 10.1943 11.8195C10.3592 12.0684 10.4867 12.2612 9.88006 12.2566C9.88006 12.2535 10.4447 12.6128 10.5023 12.6875C10.6345 12.857 10.6843 12.9799 10.7278 13.0857C10.8009 13.2677 10.8538 13.3968 11.2629 13.6208C11.4341 13.7141 11.6176 13.795 11.7996 13.8759C12.0454 13.9832 12.2912 14.0921 12.5089 14.2306C12.6272 14.3068 12.7267 14.397 12.8247 14.4841C13.0549 14.6895 13.2696 14.8839 13.6647 14.8481L13.6632 14.8497ZM27.5465 11.233C27.3272 11.3481 27.4532 11.4508 27.6041 11.5721C27.7565 11.695 27.9338 11.8366 27.8172 12.0341C27.7441 12.1601 27.5683 12.1881 27.3878 12.2146C27.2058 12.2426 27.0192 12.2721 26.9289 12.4044C26.7983 12.5957 26.8512 12.731 26.9009 12.8617C26.9616 13.0141 27.0192 13.1619 26.7796 13.3875C26.6116 13.5446 26.4529 13.5959 26.3161 13.6395C26.1123 13.7048 25.9536 13.7561 25.8805 14.1201C25.7654 14.677 26.0516 15.0488 26.3223 15.4019C26.6287 15.8032 26.9212 16.1828 26.5992 16.7864L26.5463 16.8828C26.3767 17.1784 26.0796 17.6948 26.6427 17.869C27.0518 17.995 27.0285 17.8504 27.0021 17.701C26.9834 17.5875 26.9632 17.4708 27.1265 17.4646C27.0938 17.3712 27.5901 17.4801 27.5278 17.617C27.6585 17.631 27.7223 17.701 27.7845 17.7695C27.8732 17.8675 27.9587 17.9624 28.2356 17.8784C28.5094 17.7928 28.5545 17.5361 28.5903 17.3261L28.5934 17.3106C28.6478 16.9932 28.5001 16.7195 28.3601 16.455C28.2434 16.2357 28.1314 16.0226 28.1392 15.7986V15.7146C28.1376 15.6586 28.1361 15.6135 28.1641 15.5388C28.2541 15.4745 28.3657 15.4477 28.4752 15.4641C28.6556 15.5015 28.7054 15.433 28.6261 15.2619C28.7816 14.9617 28.7225 14.4561 28.6712 14.0097C28.6478 13.8075 28.6245 13.6192 28.6245 13.4652C28.6245 13.361 28.6447 13.1852 28.6665 12.9784C28.7225 12.4386 28.8018 11.6935 28.6261 11.4726C28.5234 11.3435 27.7223 11.1412 27.5465 11.233ZM27.8903 18.8319C27.4283 18.7137 27.4843 19.0761 27.5278 19.353C27.5403 19.4339 27.5512 19.5086 27.5481 19.5599C27.5263 20.0204 27.4734 20.1324 26.9025 20.207C26.7656 20.2257 26.6349 20.1915 26.5058 20.1604C26.2881 20.1044 26.0765 20.0515 25.8478 20.2459C25.7187 20.3548 25.7234 20.4901 25.7296 20.6255C25.7327 20.6924 25.7358 20.7577 25.7234 20.8215C25.7016 20.9304 25.6176 21.0984 25.5289 21.2772C25.3656 21.6055 25.1836 21.9741 25.3329 22.0721C25.4341 22.1406 25.7265 22.0628 26.0578 21.9757C26.6303 21.8264 27.3209 21.6444 27.3645 22.1095C27.3925 22.3864 27.0301 22.4284 26.6847 22.4672C26.4607 22.4937 26.2445 22.5201 26.1481 22.6072C26.1185 22.6337 26.0625 22.8297 26.0065 23.0241C25.9443 23.2419 25.8805 23.4597 25.8572 23.4395C25.9583 23.5235 26.1201 23.4084 26.3098 23.273C26.5898 23.0739 26.9352 22.8281 27.2494 23.0988C26.8621 22.3584 28.0054 22.4641 28.4923 22.5077C28.5452 22.5139 28.5903 22.5186 28.6261 22.5201V20.0546C28.0723 20.1992 28.1081 19.8866 28.1485 19.5397C28.1827 19.241 28.2185 18.9175 27.8903 18.8319ZM28.1905 29.4408C28.3305 29.4486 28.4721 29.4564 28.6261 29.4564C28.6261 29.5808 28.5109 29.6384 28.3958 29.6944C28.2963 29.7426 28.1952 29.7924 28.1687 29.8872C28.0941 30.1564 28.2589 30.2497 28.4114 30.3352C28.5218 30.3975 28.6261 30.455 28.6261 30.5717C28.4954 30.5717 28.3492 30.5779 28.1967 30.5857C27.8747 30.5997 27.5278 30.6137 27.2572 30.5717H26.8014L26.7625 30.3944L26.6956 30.3632C26.5058 30.2746 26.1854 30.1252 26.0438 30.0272C25.3423 29.5372 25.9723 29.0286 26.6318 28.8264C26.1776 28.9664 26.8029 29.4159 27.0223 29.4766C27.1934 29.5232 27.2929 29.4999 27.4112 29.4719C27.4796 29.4564 27.5574 29.4377 27.6569 29.4315C27.8436 29.4221 28.0163 29.4315 28.1905 29.4408ZM9.80072 15.643C9.70428 15.5948 9.60006 15.6244 9.49583 15.6555C9.3745 15.6897 9.25317 15.7255 9.13961 15.6415C9.07895 15.5964 9.09917 15.5061 9.11939 15.4221C9.13495 15.3537 9.1505 15.2899 9.11939 15.2588C8.80828 14.957 8.78961 15.0301 8.73672 15.2355C8.71339 15.3272 8.68383 15.4455 8.61695 15.5684C8.48317 15.8141 8.31206 15.8717 8.14095 15.9277C7.93872 15.9961 7.7365 16.0615 7.60428 16.4472C7.31806 17.2686 6.79539 17.0088 6.60872 16.2917C6.57761 16.1797 6.48895 16.0148 6.39095 15.8281C6.14206 15.3646 5.82783 14.775 6.19961 14.5992C5.94139 14.7221 5.63806 14.775 5.33317 14.8295C4.98006 14.8917 4.62695 14.9539 4.34695 15.125C4.04828 15.3039 4.04983 15.3444 4.0545 15.5512C4.05208 15.8391 4.05571 16.1269 4.06539 16.4146L4.07161 16.6495C4.07783 16.8828 4.17583 17.0819 4.2785 17.2872C4.33761 17.4055 4.39828 17.5284 4.44183 17.6606C4.53206 17.9375 4.56939 18.2299 4.60517 18.5208C4.63006 18.7137 4.65495 18.9066 4.69383 19.0932L4.72028 19.2099C4.79961 19.5755 4.87583 19.9224 4.66272 20.2755C4.63317 20.3221 4.56161 20.3781 4.48539 20.4372C4.3485 20.5415 4.1945 20.6581 4.23028 20.7701C4.28317 20.9335 4.54761 20.6939 4.6845 20.571L4.75139 20.5119C4.87428 20.4186 4.8805 20.3299 4.88517 20.2568C4.89139 20.1681 4.89606 20.1059 5.10295 20.0997C5.38295 20.0904 5.67072 20.3999 5.84028 20.5819L5.89006 20.6364C5.98339 20.7359 6.07206 20.8588 6.16383 20.9864C6.40028 21.3192 6.66161 21.6832 7.1065 21.7377C8.48783 21.9088 8.76472 20.3144 8.25139 19.591C8.12837 19.4319 7.99146 19.2841 7.84228 19.1492C7.5825 18.9004 7.31495 18.6437 7.24339 18.3481C7.12517 17.8612 7.54361 17.4661 8.11761 17.7461C8.39139 17.8799 8.4785 18.1117 8.56872 18.345C8.64339 18.5441 8.71806 18.7448 8.91095 18.8864C9.31539 19.1866 9.35272 19.101 9.41961 18.9486C9.45539 18.8677 9.5005 18.7681 9.61406 18.6997C9.94072 18.499 10.5085 18.3341 10.5863 18.8335C10.6143 19.0092 10.4681 19.1586 10.3203 19.311C10.1429 19.4915 9.9625 19.6766 10.0667 19.9146C10.2674 20.3735 10.4494 20.1246 10.6049 19.913C10.6361 19.8664 10.6687 19.8244 10.6998 19.7886C11.1338 19.2986 11.5647 18.7868 11.4356 18.1412C11.3532 17.729 11.0654 17.435 10.7714 17.1348C10.6354 17.0011 10.5071 16.8599 10.3872 16.7117C10.3172 16.6215 10.2503 16.4566 10.1803 16.2808C10.0714 16.0117 9.95472 15.7192 9.80072 15.643ZM17.5303 26.6299C17.5256 26.8259 17.5225 27.0188 17.6081 27.2101C17.8087 27.6441 17.9192 27.9024 17.6423 28.3068C17.5676 28.4157 17.4898 28.4966 17.4152 28.5744C17.2679 28.7079 17.1557 28.8757 17.0885 29.0628C17.0652 29.1359 17.0465 29.2028 17.0294 29.265C16.9687 29.4921 16.9236 29.6586 16.6094 29.8095C15.8876 30.1595 15.3478 29.8406 14.8718 29.4408L14.7645 29.3506C14.5249 29.1515 14.3616 29.0161 14.2154 28.7439C14.1783 28.6699 14.1662 28.5858 14.1812 28.5044C14.1921 28.3892 14.2014 28.2928 13.9821 28.1901C13.7689 28.0906 13.5621 28.1279 13.3521 28.1668C13.0907 28.2135 12.8263 28.2617 12.5509 28.0424C11.9256 27.5415 12.0843 26.5646 12.6629 26.1415C12.8247 26.0217 12.9741 25.9517 13.0985 25.8926C13.3863 25.7572 13.5356 25.6857 13.4034 25.219C13.2903 25.1316 13.2059 25.0124 13.1607 24.8768C13.1551 24.7637 13.1821 24.6514 13.2385 24.5532C13.2229 24.4817 13.2463 24.4132 13.2681 24.351C13.3116 24.2219 13.3443 24.1255 12.9989 24.1239C13.0954 24.0539 13.1234 23.8984 13.1498 23.7381C13.1918 23.5017 13.2354 23.2512 13.4998 23.2248C13.9541 23.1812 14.0038 23.6464 14.0427 23.9964C14.0552 24.1099 14.0661 24.2126 14.0894 24.2795C14.2729 24.8084 14.4892 24.9904 15.0772 24.7804C15.2296 24.7259 15.9436 24.3432 15.9996 24.2592C15.7429 24.6481 16.2672 25.0168 16.6592 25.2921C16.7556 25.359 16.8458 25.4212 16.9112 25.4772L16.9936 25.5426C17.1596 25.6607 17.3025 25.8084 17.4152 25.9781C17.5396 26.1959 17.5349 26.4137 17.5303 26.6315V26.6299ZM23.9765 29.5092C23.7525 29.4844 22.9296 29.167 23.0292 28.901C23.2827 28.2275 24.6034 28.9881 25.0607 29.251L25.1432 29.2977C24.9689 29.307 24.8009 29.3568 24.6345 29.4066C24.4167 29.4688 24.2021 29.5341 23.9765 29.5092Z" fill="black" fill-opacity="0.4"/>
<path d="M10.7278 10.1305C10.7589 10.3653 11.2193 10.7216 11.5164 10.51C11.7062 10.5785 11.4246 10.076 11.378 10.0293C11.1306 9.78356 10.664 9.66845 10.7278 10.1305ZM15.8642 10.4338C15.7491 10.4058 15.6402 10.3809 15.5484 10.3482C15.4644 10.3187 15.4598 9.99978 15.494 9.93601C15.5624 9.81156 15.7973 9.82712 16.012 9.83801C16.0742 9.84267 16.1364 9.84578 16.1909 9.84578H18.2598C17.9704 9.9609 18.2831 10.0791 18.4309 10.1102C18.5522 10.076 19.4218 10.72 19.3969 10.9891C19.3844 11.1353 19.2802 11.2427 19.1744 11.3516C19.05 11.4838 18.9178 11.6191 18.9349 11.8307C18.9473 11.9582 19.0718 12.1698 19.2118 12.4062C19.5618 12.9973 20.0051 13.7456 18.9878 13.7658C18.5133 13.7751 18.5242 13.5511 18.5382 13.2898C18.5475 13.1171 18.5584 12.9258 18.4262 12.7765C18.3334 12.689 18.2239 12.6213 18.1042 12.5773C17.9471 12.5058 17.7884 12.4342 17.7246 12.2973C17.6935 12.2289 17.7169 12.0842 17.7433 11.9271C17.8071 11.5382 17.8833 11.0793 17.1506 11.5833C17.076 11.6347 17.0309 11.7342 16.9842 11.8338C16.8955 12.0267 16.8069 12.2196 16.516 12.0671C16.2624 11.9365 16.4024 11.6782 16.5424 11.4169C16.6498 11.2193 16.7571 11.0218 16.6918 10.8787C16.5673 10.5987 16.194 10.51 15.8658 10.4338H15.8642ZM28.3755 24.0356C27.9462 24.1476 27.6989 23.7493 27.5013 23.4305C27.366 23.2127 27.254 23.0322 27.1233 23.0727C26.7764 22.774 26.4389 23.0478 26.162 23.2749C26.0578 23.3605 25.9598 23.4398 25.8758 23.4771C25.8913 23.4896 25.1011 23.3029 25.2613 23.2718C24.2004 22.9109 24.188 23.7229 24.1771 24.4276C24.1724 24.7324 24.1678 25.0187 24.0791 25.182C23.9204 25.4776 23.6964 25.5911 23.3309 25.7187C23.2018 25.7653 23.0602 25.7902 22.9186 25.8167C22.6231 25.8711 22.3291 25.9256 22.1626 26.1542C22.1315 26.1962 22.102 26.33 22.0818 26.4249C22.0693 26.4793 22.06 26.5213 22.0553 26.5213C22.1486 26.5462 22.8144 26.7562 22.8829 26.8138C22.9451 26.8651 22.9606 26.9569 22.9762 27.0409C22.9886 27.1124 23.0011 27.1778 23.0384 27.2089C23.1473 27.3007 23.2531 27.3645 23.3558 27.4236C23.53 27.5262 23.6902 27.6196 23.8162 27.828C23.8706 27.9167 23.8986 28.0209 23.9251 28.1236C23.992 28.3709 24.0573 28.612 24.4913 28.6213C24.8444 28.6276 25.0529 28.3538 25.1618 28.1189C25.2115 28.0131 25.1975 27.7207 25.1835 27.3909C25.1478 26.5851 25.1026 25.5616 25.9224 26.5105C26.0033 26.6038 26.0344 26.666 26.0593 26.7189C26.1029 26.8076 26.1309 26.8667 26.3502 26.9896C26.4404 27.0393 26.5306 27.0424 26.6178 27.044C26.7438 27.0471 26.8635 27.0502 26.9709 27.1996C27.0798 27.3551 27.0269 27.5013 26.9942 27.5884C26.9569 27.688 26.9475 27.7129 27.2353 27.5822C27.9026 27.282 27.9275 26.6116 27.9509 26.0485C27.954 25.9364 27.9586 25.8307 27.9664 25.7296C27.9991 25.3796 28.0753 25.1711 28.2215 24.8616L28.2869 24.7527C28.4471 24.496 28.8033 23.9251 28.3771 24.0371L28.3755 24.0356ZM15.2311 29.7522C15.1098 29.5811 14.9542 29.4707 14.7909 29.3509C14.7162 29.2964 14.64 29.242 14.5638 29.1798C14.5202 29.1425 14.4704 29.1113 14.4222 29.0802C14.3242 29.018 14.2262 28.9558 14.1749 28.8593C14.1329 28.7816 14.1484 28.6758 14.164 28.5716C14.1795 28.4502 14.1982 28.3305 14.1282 28.2527C13.9306 28.0318 13.6646 28.0847 13.3831 28.1391C13.0098 28.2138 12.6115 28.2931 12.3253 27.73C12.12 27.3271 12.0204 26.7469 12.2864 26.3549C12.4 26.19 12.6473 26.0749 12.8915 25.966C13.1933 25.826 13.4904 25.6891 13.5106 25.462C13.5215 25.3298 13.422 25.2349 13.3193 25.1353C13.2291 25.0498 13.1358 24.9611 13.1109 24.8398C13.0906 24.7402 13.1435 24.6205 13.1949 24.5053C13.2944 24.2829 13.3846 24.0822 12.8978 24.0931C12.9055 24.0962 12.8978 24.0993 12.8915 24.1025C12.8894 24.1034 12.8874 24.1045 12.8853 24.1056C12.8791 24.1025 12.8231 24.1242 12.7593 24.1522C12.6753 24.188 12.5726 24.23 12.5338 24.2331C12.5338 24.2331 12.512 24.2518 12.4793 24.286C12.33 24.4369 11.9115 24.8616 11.7 24.8413C11.28 24.804 11.1182 23.9951 11.3422 23.9531C11.2535 23.9329 11.1708 23.8918 11.1011 23.8333C10.9689 23.74 10.8304 23.642 10.5442 23.7276C10.3202 23.7944 10.2642 23.8909 10.1911 24.0169C10.1662 24.0573 10.1398 24.1025 10.1055 24.1507C9.9982 24.3016 9.93753 24.4027 9.89865 24.4664C9.8582 24.5333 9.84265 24.5613 9.82087 24.566C9.80376 24.5707 9.78353 24.5613 9.75087 24.5442C9.68865 24.5147 9.57664 24.4618 9.34487 24.4229L9.33553 24.4696C9.30442 24.65 9.29198 24.7216 9.31531 24.776C9.33087 24.8102 9.36198 24.8382 9.41331 24.8849C9.4522 24.9222 9.50664 24.9705 9.57198 25.0405C9.65753 25.1338 9.75553 25.2162 9.85353 25.3002C9.92353 25.3609 9.99353 25.42 10.0589 25.4822C10.1398 25.56 10.8911 26.3378 10.7355 26.3736C10.8864 26.4016 10.902 26.7593 10.916 27.1047C10.9269 27.3442 10.9362 27.5776 10.9938 27.6849C11.0482 27.7938 11.1384 27.884 11.2271 27.9773C11.3002 28.0504 11.3718 28.1251 11.4262 28.2076C11.5724 28.4284 11.5958 28.6867 11.6175 28.9496C11.6409 29.2 11.6626 29.4551 11.7949 29.6838C11.8291 29.7429 11.8851 29.7927 11.9411 29.8409C11.9955 29.8876 12.0484 29.9342 12.0811 29.9887C12.1029 30.026 12.1418 30.0587 12.1791 30.0913L12.2398 30.1473C12.3549 30.2718 12.3673 30.3371 12.3766 30.3776C12.3782 30.39 12.3813 30.3993 12.386 30.4087C12.4046 30.4413 12.4638 30.4522 12.7406 30.5051H12.7453C13.2555 30.6016 14.7084 30.5565 15.1098 30.2298C15.1658 30.1831 15.2249 30.0571 15.27 29.9607C15.3011 29.8984 15.3229 29.8471 15.3353 29.8456C15.2941 29.828 15.2594 29.7981 15.2358 29.76C15.2358 29.7569 15.2326 29.7553 15.2311 29.7522ZM20.0502 29.4256C19.9102 29.41 19.8091 29.3664 19.7095 29.3229C19.5588 29.243 19.3878 29.2095 19.218 29.2264C19.0313 29.2451 18.8882 29.3353 18.7451 29.4224C18.6626 29.4738 18.5786 29.5251 18.4853 29.5625C18.2598 29.6558 17.8693 29.6962 17.4431 29.7398C16.5875 29.8284 15.5889 29.9311 15.5002 30.5051C15.6449 30.5051 15.8658 30.5207 16.1224 30.5362C16.9111 30.5829 18.0358 30.6529 18.2986 30.4071C18.4324 30.2811 18.4138 30.1738 18.3982 30.0851C18.3764 29.956 18.3593 29.8611 18.8073 29.7896C18.9535 29.7662 19.0609 29.8051 19.1682 29.8409C19.3315 29.8985 19.4949 29.9544 19.7935 29.7927C19.8355 29.7693 20.3784 29.4613 20.0486 29.424L20.0502 29.4256ZM19.7733 26.2678C20.5418 25.4698 20.7502 26.6131 20.7502 27.086C20.7502 27.6273 19.8169 28.0271 19.526 27.4438C19.4295 27.2509 19.5835 26.4638 19.7733 26.2678ZM28.4222 10.9596C28.3021 10.8523 28.2001 10.7262 28.1204 10.5862C27.9649 10.3498 27.7953 10.0962 27.5791 10.0698C26.9942 9.99667 27.0611 10.6873 27.1171 11.2505C27.1466 11.5429 27.1715 11.8027 27.0984 11.8991C27.1078 11.8991 27.142 11.9209 27.1933 11.952C27.4406 12.106 28.0535 12.4856 27.7455 11.7871C27.7175 11.7249 27.6086 11.6751 27.4998 11.6238C27.3006 11.5305 27.1015 11.4371 27.4158 11.2722C27.6164 11.168 27.8389 11.2722 28.0535 11.3749C28.206 11.4465 28.3553 11.5149 28.4891 11.5102L28.4938 11.392C28.5046 11.2333 28.5171 11.0265 28.4222 10.9596ZM28.2309 17.6749C28.2931 17.5925 28.3491 17.5131 28.3989 17.4851C28.4284 17.4665 28.528 20.0782 28.4222 20.0456C27.9089 20.352 27.9726 19.6722 28.0131 19.2522C28.0286 19.0998 28.038 18.9831 28.0178 18.9567C27.9446 18.8571 27.7906 18.8198 27.6366 18.784C27.4251 18.7327 27.212 18.6813 27.2058 18.4651C27.2026 18.3733 27.5324 18.1198 27.6149 18.0638C27.646 18.0436 27.6475 18.0093 27.6491 17.9736C27.6522 17.9362 27.6538 17.8958 27.6911 17.8725C27.7129 17.8569 27.7658 17.8725 27.8264 17.888C27.9042 17.9098 27.9929 17.9347 28.0364 17.9005C28.1018 17.8507 28.1686 17.7605 28.2309 17.6749Z" fill="white" fill-opacity="0.2"/>
<path d="M22.5671 19.711C22.4893 19.5773 22.4115 19.4435 22.2327 19.3641C21.7613 19.1557 21.752 19.0593 21.7364 18.8944C21.7271 18.7964 21.7162 18.6766 21.6058 18.4946C21.3382 18.0559 20.6631 18.0855 20.128 18.1104C20.0191 18.115 19.9164 18.1197 19.8247 18.1197C19.7049 18.1197 19.6193 18.115 19.5524 18.1104C19.3409 18.0979 19.3191 18.0948 19.0438 18.3313C18.9333 18.4277 18.8229 18.5397 18.7109 18.6564C18.5833 18.7855 18.4542 18.9193 18.3142 19.0359C18.0124 19.2879 17.3155 19.9226 17.8258 20.2757C17.5769 20.3301 17.6547 20.7533 17.8273 20.8466C17.8071 20.8544 17.5924 21.3584 17.6033 21.3864C17.4898 21.3786 17.3824 21.3506 17.2798 21.3241C17.0495 21.265 16.8395 21.2106 16.6358 21.4081C16.4631 21.5761 16.5191 21.8219 16.5751 22.0677C16.6233 22.2746 16.6715 22.4815 16.5813 22.6433C16.3309 23.099 15.508 23.1426 15.074 22.8704C14.7784 22.6837 14.1002 22.0801 13.912 21.8017C13.5915 21.3257 13.7191 20.8995 14.3911 20.9181C14.556 20.9213 14.6711 20.9913 14.7582 21.0426C14.8858 21.1173 14.9418 21.1499 14.9729 20.859C14.9853 20.7315 14.8484 20.5681 14.738 20.4359C14.696 20.3861 14.6571 20.3395 14.6322 20.3021L14.5809 20.2244C14.2931 19.7981 14.1764 19.6255 14.3942 19.1059L14.4253 19.0313C14.5809 18.661 14.6338 18.5335 14.4875 18.1104C14.3164 17.6235 14.2698 17.4181 14.3102 16.9033C14.3102 16.8799 14.3149 16.8535 14.318 16.8239C14.3444 16.6093 14.388 16.2561 14.0162 16.2017C14.0722 16.1193 14.2853 15.511 14.234 15.455C14.5513 15.4908 14.6011 15.4333 14.696 15.3244C14.7551 15.2575 14.8329 15.1688 15.0055 15.0724C15.1253 15.0055 15.2778 14.9884 15.4333 14.9728C15.648 14.9495 15.8689 14.9261 16.0058 14.7628C16.1318 14.615 16.138 14.3755 16.1427 14.1406C16.1458 13.9679 16.1504 13.7968 16.2018 13.6661C16.2967 13.425 16.4242 13.1279 16.7462 13.0206C17.524 12.7608 17.4618 13.4281 17.4198 13.8964C17.412 13.9757 17.4042 14.0519 17.4042 14.1141C17.3778 14.9106 17.3653 15.7568 17.5209 16.5253C17.6795 17.3061 17.8118 17.0075 17.9907 16.603C18.0249 16.5253 18.0607 16.4428 18.0995 16.365C18.1736 16.2333 18.2724 16.1171 18.3904 16.0228C18.4931 15.9295 18.5958 15.8361 18.6627 15.7133C18.7124 15.6199 18.7093 15.525 18.7047 15.4333C18.6984 15.3026 18.6922 15.1813 18.8322 15.0817C18.9364 15.007 19.0609 15.0319 19.1744 15.0553C19.2678 15.0739 19.3533 15.091 19.4155 15.049C19.5353 14.9697 19.5524 14.7441 19.5711 14.5108C19.5975 14.1795 19.6255 13.8326 19.9522 13.873C20.2727 13.9088 20.3022 14.2355 20.3271 14.5093C20.3442 14.7021 20.3598 14.8701 20.4749 14.8919L20.2602 14.9433C19.7609 15.0584 19.0515 15.2233 20.03 15.553C19.7298 15.581 19.8169 15.9388 19.8589 16.1037C19.8589 16.1161 19.8635 16.127 19.8651 16.1364C19.8744 16.183 19.9304 16.2235 19.9895 16.2608C20.0471 16.3028 20.1078 16.3448 20.1155 16.3961C20.1358 16.5097 20.1047 16.5673 20.0735 16.6233C20.0518 16.6637 20.0284 16.7041 20.0269 16.7679C20.0238 16.8504 20.0144 16.9297 20.0067 17.0013C19.9755 17.3124 19.9569 17.4741 20.4733 17.2221C20.6164 17.1506 20.6507 17.051 20.6755 16.9764C20.7129 16.869 20.7362 16.8037 21.0271 16.9079C21.038 16.9375 21.0629 16.9546 21.1049 16.9608C21.1484 16.9484 21.2184 16.9966 21.3009 17.0526C21.4284 17.1381 21.584 17.2424 21.7193 17.1864C21.9869 17.0759 21.8858 16.8861 21.794 16.715C21.7608 16.6594 21.7346 16.5998 21.7162 16.5377C21.626 16.1317 21.6851 16.1037 21.8142 16.043C21.9692 15.9762 22.0969 15.8589 22.1767 15.7101C22.2918 15.5235 22.2171 15.3337 22.1487 15.1579C22.0553 14.9261 21.9713 14.7146 22.3447 14.5497C23.2935 14.1297 23.4429 15.105 23.3247 15.5701L23.3091 15.6246C23.18 16.1286 23.082 16.5035 23.3293 17.0246C23.4973 17.3808 23.7742 17.5908 24.0713 17.8179C24.2206 17.9299 24.3747 18.0481 24.5224 18.1913C25.0809 18.7233 25.126 19.3579 24.4898 19.8713C23.9795 20.2788 23.2951 20.4001 22.7631 19.9724C22.6744 19.9008 22.62 19.8075 22.5655 19.7141L22.5671 19.711ZM21.5964 24.5084C20.8622 24.4119 20.6087 24.3933 20.0533 24.5301C20.0891 24.5659 20.0907 24.5924 20.0595 24.6079C20.1529 24.6437 20.2944 24.6686 20.4484 24.6935C20.7207 24.7401 21.024 24.793 21.1375 24.9268C21.1655 24.9579 21.1422 25.087 21.122 25.2037C21.1033 25.3064 21.0862 25.3997 21.1064 25.4121C21.0909 25.4028 21.7613 24.5939 21.8655 24.5161C21.7753 24.5193 21.6867 24.5161 21.5964 24.5084ZM8.85798 26.599L8.91398 26.6301C8.99176 26.6581 9.07265 26.6706 9.15976 26.6675C9.11932 26.8853 8.80198 27.2897 8.45198 27.2228C8.03821 27.145 8.19687 26.9615 8.36487 26.7686C8.45665 26.6628 8.55154 26.5555 8.55776 26.4575C8.55776 26.4326 8.75687 26.543 8.85643 26.5975L8.85798 26.599ZM8.68532 25.5646C8.74754 25.6517 8.85332 25.7186 8.95598 25.7824C9.00265 25.8104 9.04776 25.8384 9.08665 25.8679C9.14421 25.7839 9.08821 25.619 9.03376 25.4541C8.9871 25.3188 8.94354 25.185 8.96532 25.101C8.69932 25.0917 8.56865 25.4028 8.68532 25.5646ZM13.5122 9.86437C13.2587 10.0059 12.3704 10.5084 12.3207 9.98881L12.3098 9.8457H13.5433L13.5122 9.86281V9.86437Z" fill="white" fill-opacity="0.2"/>
</g>
<path d="M17.0666 24.8447H16.7554C16.5836 24.8447 16.4443 24.984 16.4443 25.1558V26.7114C16.4443 26.8832 16.5836 27.0225 16.7554 27.0225H17.0666C17.2384 27.0225 17.3777 26.8832 17.3777 26.7114V25.1558C17.3777 24.984 17.2384 24.8447 17.0666 24.8447Z" fill="black" fill-opacity="0.6"/>
<path d="M14.8888 24.8447H14.5777C14.4059 24.8447 14.2666 24.984 14.2666 25.1558V26.7114C14.2666 26.8832 14.4059 27.0225 14.5777 27.0225H14.8888C15.0606 27.0225 15.1999 26.8832 15.1999 26.7114V25.1558C15.1999 24.984 15.0606 24.8447 14.8888 24.8447Z" fill="black" fill-opacity="0.6"/>
<path d="M19.2443 24.8447H18.9332C18.7614 24.8447 18.6221 24.984 18.6221 25.1558V26.7114C18.6221 26.8832 18.7614 27.0225 18.9332 27.0225H19.2443C19.4161 27.0225 19.5554 26.8832 19.5554 26.7114V25.1558C19.5554 24.984 19.4161 24.8447 19.2443 24.8447Z" fill="black" fill-opacity="0.6"/>
<path d="M21.4223 24.8447H21.1112C20.9393 24.8447 20.8 24.984 20.8 25.1558V26.7114C20.8 26.8832 20.9393 27.0225 21.1112 27.0225H21.4223C21.5941 27.0225 21.7334 26.8832 21.7334 26.7114V25.1558C21.7334 24.984 21.5941 24.8447 21.4223 24.8447Z" fill="black" fill-opacity="0.6"/>
<path d="M25.4664 16.4443H10.5331C10.1895 16.4443 9.91089 16.7229 9.91089 17.0666V22.3554C9.91089 22.6991 10.1895 22.9777 10.5331 22.9777H25.4664C25.8101 22.9777 26.0887 22.6991 26.0887 22.3554V17.0666C26.0887 16.7229 25.8101 16.4443 25.4664 16.4443Z" fill="black" fill-opacity="0.8"/>
<path d="M15.5108 19.7114H14.5775C14.4056 19.7114 14.2664 19.8507 14.2664 20.0225V21.1114C14.2664 21.2832 14.4056 21.4225 14.5775 21.4225H15.5108C15.6826 21.4225 15.8219 21.2832 15.8219 21.1114V20.0225C15.8219 19.8507 15.6826 19.7114 15.5108 19.7114Z" fill="#8BDDFF"/>
<path d="M21.4219 19.7114H20.4886C20.3168 19.7114 20.1775 19.8507 20.1775 20.0225V21.1114C20.1775 21.2832 20.3168 21.4225 20.4886 21.4225H21.4219C21.5938 21.4225 21.733 21.2832 21.733 21.1114V20.0225C21.733 19.8507 21.5938 19.7114 21.4219 19.7114Z" fill="#8BDDFF"/>
<path fill-rule="evenodd" clip-rule="evenodd" d="M13.1776 16.4443H14.4221L11.7776 22.9777H10.5332L13.1776 16.4443Z" fill="white" fill-opacity="0.4"/>
</g>
<defs>
<filter id="filter0_di_89_1376" x="13.8" y="4.77753" width="8.71106" height="7.31115" filterUnits="userSpaceOnUse" color-interpolation-filters="sRGB">
<feFlood flood-opacity="0" result="BackgroundImageFix"/>
<feColorMatrix in="SourceAlpha" type="matrix" values="0 0 0 0 0 0 0 0 0 0 0 0 0 0 0 0 0 0 127 0" result="hardAlpha"/>
<feOffset/>
<feGaussianBlur stdDeviation="0.622222"/>
<feColorMatrix type="matrix" values="0 0 0 0 1 0 0 0 0 1 0 0 0 0 1 0 0 0 0.5 0"/>
<feBlend mode="normal" in2="BackgroundImageFix" result="effect1_dropShadow_89_1376"/>
<feBlend mode="normal" in="SourceGraphic" in2="effect1_dropShadow_89_1376" result="shape"/>
<feColorMatrix in="SourceAlpha" type="matrix" values="0 0 0 0 0 0 0 0 0 0 0 0 0 0 0 0 0 0 127 0" result="hardAlpha"/>
<feOffset/>
<feGaussianBlur stdDeviation="0.311111"/>
<feComposite in2="hardAlpha" operator="arithmetic" k2="-1" k3="1"/>
<feColorMatrix type="matrix" values="0 0 0 0 1 0 0 0 0 1 0 0 0 0 1 0 0 0 0.5 0"/>
<feBlend mode="normal" in2="shape" result="effect2_innerShadow_89_1376"/>
</filter>
</defs>
</svg>
