<svg width="36" height="36" viewBox="0 0 36 36" fill="none" xmlns="http://www.w3.org/2000/svg">
<path fill-rule="evenodd" clip-rule="evenodd" d="M17.403 27.954C17.5826 28.0638 17.7895 28.1209 18 28.119C18.2105 28.1209 18.4174 28.0638 18.597 27.954L20.2995 26.9325C21.947 25.9439 23.8007 25.3497 25.7158 25.1962C27.6309 25.0426 29.5556 25.334 31.3395 26.0475C32.6745 26.5815 34.125 25.5975 34.125 24.162V6.675C34.125 5.808 33.597 5.0295 32.7915 4.707C30.4938 3.788 28.0147 3.41272 25.5479 3.61048C23.0811 3.80823 20.6935 4.57368 18.5715 5.847L18 6.186L17.427 5.8425C15.305 4.56918 12.9174 3.80373 10.4506 3.60597C7.98383 3.40822 5.50473 3.7835 3.20701 4.7025C2.81304 4.86017 2.47547 5.13246 2.23799 5.48413C2.00051 5.8358 1.87406 6.25066 1.87501 6.675V24.165C1.87501 25.6005 3.32551 26.583 4.66051 26.049C6.44439 25.3355 8.36909 25.0441 10.2842 25.1977C12.1994 25.3512 14.0531 25.9454 15.7005 26.934L17.403 27.954ZM4.12501 6.762V23.8425C6.19807 23.0656 8.41974 22.7665 10.6245 22.9675C12.8292 23.1685 14.9601 23.8645 16.8585 25.0035L16.875 25.0125V8.1375L16.2705 7.7745C14.4586 6.68724 12.4213 6.03053 10.3156 5.85498C8.20982 5.67944 6.09189 5.98975 4.12501 6.762ZM19.1415 25.002L19.125 25.0125V8.1375L19.7295 7.7745C21.5414 6.68724 23.5787 6.03053 25.6844 5.85498C27.7902 5.67944 29.9081 5.98975 31.875 6.762V23.8425C29.8019 23.0656 27.5803 22.7665 25.3755 22.9675C23.1708 23.1685 21.0399 23.8645 19.1415 25.0035" fill="#EF9F01"/>
<path d="M13.9125 28.563C12.4214 27.6933 10.7262 27.235 8.99998 27.235C7.2738 27.235 5.57855 27.6933 4.08748 28.563L3.93298 28.653C3.80534 28.7275 3.69361 28.8263 3.60417 28.944C3.51474 29.0616 3.44935 29.1957 3.41175 29.3386C3.37414 29.4815 3.36505 29.6304 3.38499 29.7769C3.40493 29.9233 3.45352 30.0644 3.52798 30.192C3.60244 30.3196 3.70131 30.4314 3.81895 30.5208C3.93659 30.6102 4.0707 30.6756 4.2136 30.7132C4.35651 30.7508 4.50543 30.7599 4.65185 30.74C4.79828 30.72 4.93934 30.6715 5.06698 30.597L5.22148 30.507C6.36838 29.8381 7.67228 29.4857 8.99998 29.4857C10.3277 29.4857 11.6316 29.8381 12.7785 30.507L14.4105 31.458C15.5 32.0934 16.7387 32.4282 18 32.4282C19.2613 32.4282 20.5 32.0934 21.5895 31.458L23.2215 30.507C24.3684 29.8381 25.6723 29.4857 27 29.4857C28.3277 29.4857 29.6316 29.8381 30.7785 30.507L30.933 30.597C31.1908 30.7474 31.4977 30.7892 31.7864 30.7132C32.075 30.6373 32.3216 30.4498 32.472 30.192C32.6224 29.9342 32.6642 29.6272 32.5882 29.3386C32.5123 29.05 32.3248 28.8034 32.067 28.653L31.9125 28.563C30.4214 27.6933 28.7262 27.235 27 27.235C25.2738 27.235 23.5786 27.6933 22.0875 28.563L20.457 29.514C19.7113 29.9491 18.8634 30.1784 18 30.1784C17.1366 30.1784 16.2887 29.9491 15.543 29.514L13.9125 28.563Z" fill="#EF9F01"/>
</svg>
