<svg width="28" height="29" viewBox="0 0 28 29" fill="none" xmlns="http://www.w3.org/2000/svg">
<path d="M25.4398 12.5512H24.5V12.5028H14V17.1694H20.5935C19.6315 19.886 17.0468 21.8361 14 21.8361C10.1343 21.8361 7.00004 18.7019 7.00004 14.8361C7.00004 10.9704 10.1343 7.8361 14 7.8361C15.7845 7.8361 17.4079 8.50927 18.644 9.60885L21.9439 6.30893C19.8602 4.36702 17.073 3.16943 14 3.16943C7.55712 3.16943 2.33337 8.39318 2.33337 14.8361C2.33337 21.279 7.55712 26.5028 14 26.5028C20.443 26.5028 25.6667 21.279 25.6667 14.8361C25.6667 14.0539 25.5862 13.2903 25.4398 12.5512Z" fill="#FFC107"/>
<path d="M3.67847 9.40585L7.51155 12.2169C8.54872 9.6491 11.0606 7.8361 14 7.8361C15.7844 7.8361 17.4078 8.50927 18.6439 9.60885L21.9438 6.30893C19.8601 4.36702 17.073 3.16943 14 3.16943C9.5188 3.16943 5.63263 5.69935 3.67847 9.40585Z" fill="#FF3D00"/>
<path d="M14 26.5028C17.0135 26.5028 19.7517 25.3495 21.8219 23.4741L18.2111 20.4186C17.0004 21.3393 15.521 21.8373 14 21.8361C10.9655 21.8361 8.38894 19.9012 7.41827 17.2009L3.61377 20.1322C5.5446 23.9104 9.46577 26.5028 14 26.5028Z" fill="#4CAF50"/>
<path d="M25.4398 12.5511H24.5V12.5027H14V17.1694H20.5934C20.1333 18.4623 19.3045 19.592 18.2093 20.4191L18.2111 20.4179L21.8219 23.4734C21.5664 23.7056 25.6667 20.6694 25.6667 14.836C25.6667 14.0538 25.5862 13.2902 25.4398 12.5511Z" fill="#1976D2"/>
</svg>
