<svg width="48" height="48" viewBox="0 0 48 48" fill="none" xmlns="http://www.w3.org/2000/svg">
<path fill-rule="evenodd" clip-rule="evenodd" d="M24.9923 15.4466L25.2602 15.4588C26.684 15.5346 27.9717 15.8468 29.3163 16.3114L29.6997 16.4398C33.6596 17.8582 36.9501 20.9257 38.8088 24.6769C39.6928 26.6236 40.1866 28.679 40.1624 30.8129C40.1599 31.0524 40.1602 31.2918 40.1609 31.5313C40.1584 32.9624 40.1118 34.4498 39.6059 35.8029L39.5186 36.0484C39.4351 36.2805 39.3487 36.5113 39.2613 36.742L39.133 37.092C37.8098 40.4871 35.2789 43.2794 32.1268 45.0655L31.9306 45.1824C30.0763 46.2843 28.0082 46.9589 25.8571 47.1194L25.4404 47.176C23.2351 47.4583 20.9218 47.1954 18.8307 46.4708L18.6131 46.3982C16.2768 45.6141 14.2769 44.3306 12.4529 42.6874L12.2308 42.4893C11.2503 41.5628 10.4248 40.389 9.75047 39.2282L9.63831 39.04C7.62452 35.6272 7.22737 31.8309 7.9128 27.986L7.97614 27.63C8.43666 25.5098 9.51101 23.5239 10.8315 21.8244L11.0603 21.5284C12.3943 19.8503 13.9446 18.5539 15.804 17.5005L15.9923 17.3933C18.7756 15.8361 21.8286 15.294 24.9923 15.4466ZM26.994 18.0914C27.2256 18.1412 27.4576 18.1871 27.6901 18.2323C30.9808 18.9687 34.0142 21.42 35.8089 24.2161C37.7355 27.4667 38.3141 30.8955 37.4236 34.58L37.3693 34.8112C36.9027 36.7203 35.8922 38.5052 34.6131 39.9849L34.4748 40.1497C33.3854 41.4434 32.0969 42.4525 30.5961 43.2322C30.4623 43.302 30.3293 43.3734 30.1971 43.4461C27.0947 45.1481 23.2469 45.3332 19.8745 44.3908C16.3656 43.3271 13.3667 40.9337 11.6033 37.7014C9.92151 34.4647 9.49033 30.9008 10.5519 27.4083C11.6572 23.9545 14.062 21.1248 17.2092 19.3381C17.4741 19.2142 17.736 19.1048 18.012 19.0084C18.2637 18.9155 18.4999 18.809 18.7429 18.6959C19.254 18.4669 19.7666 18.3195 20.3103 18.1896L20.5972 18.1203C22.8072 17.5989 24.7823 17.6154 26.994 18.0914ZM20.4522 19.0139L20.235 19.0734C16.9593 19.9977 14.276 22.1832 12.5196 25.0741C10.8303 28.1428 10.551 31.6356 11.3719 35.0124C11.5087 35.4762 11.6857 35.8832 11.9124 36.3096L12.0265 36.5302C12.5877 37.6097 13.1916 38.611 13.9663 39.5525L14.1774 39.8135C15.2224 41.0496 16.6813 42.1817 18.1821 42.7955L18.4287 42.9226C21.4125 44.4512 24.9329 44.3923 28.0516 43.3968C31.3587 42.3095 33.9808 40.0215 35.6056 36.951C37.1628 33.8551 37.2737 30.3113 36.2132 27.0397C35.4684 24.9546 34.008 22.8412 32.2349 21.5001L31.9419 21.2772C30.2676 20.0625 28.5209 19.2625 26.5057 18.7977L26.1413 18.7107C24.2647 18.3468 22.2811 18.5008 20.4522 19.0139ZM22.8304 42.2553V33.9317C22.7961 33.9317 22.7726 33.9317 22.7507 33.9374C22.7034 33.9495 22.6629 33.9877 22.5352 34.1082L22.2928 34.3544C22.1092 34.5398 21.9258 34.7255 21.7426 34.9114C21.675 34.98 21.6076 35.0488 21.5401 35.1177L21.5401 35.1177L21.5401 35.1177L21.54 35.1178L21.54 35.1178L21.54 35.1178L21.54 35.1178L21.54 35.1178L21.5399 35.1178C21.1871 35.4779 20.834 35.8383 20.4573 36.1734C19.8713 36.6737 19.323 37.2046 18.7775 37.7483C18.5936 37.9323 18.4095 38.1161 18.2246 38.2991C18.102 38.4203 17.9797 38.5417 17.8577 38.6635L17.683 38.8379L17.6572 38.8634C17.3428 39.1732 17.0535 39.4583 16.885 39.8771C17.879 40.72 19.0745 41.3181 20.3047 41.7309L20.6144 41.8296C21.3795 42.0748 22.0061 42.1729 22.8304 42.2553ZM24.9923 33.9317C25.4648 34.3367 25.903 34.7218 26.3364 35.1609L26.4942 35.3199C26.698 35.5253 26.9012 35.7313 27.1044 35.9373L27.1044 35.9373L27.1045 35.9373L27.1045 35.9374L27.1045 35.9374L27.1045 35.9374L27.1045 35.9374L27.1065 35.9395L27.1494 35.9829C27.7139 36.5544 28.2791 37.1166 28.8902 37.6389C29.2677 37.9705 29.6226 38.3255 29.9777 38.6807L30.073 38.7759L30.3267 39.0256L30.5662 39.2644L30.7828 39.4797C30.8636 39.5743 30.9023 39.6195 30.9208 39.6718C30.9377 39.7198 30.9377 39.7737 30.9377 39.8771C29.2861 41.315 27.1299 42.0178 24.9923 42.2553V33.9317ZM22.8304 28.743V20.5275C22.7369 20.5275 22.6433 20.5265 22.5496 20.5255L22.5495 20.5255C22.1817 20.5215 21.8127 20.5174 21.4505 20.575L21.2203 20.6428L20.957 20.7196L20.6887 20.8045C19.9093 21.0457 19.2039 21.326 18.4976 21.7381L18.1821 21.9328C18.0847 21.9905 17.9833 22.045 17.8818 22.0995L17.8818 22.0995C17.4614 22.3255 17.0387 22.5527 16.885 23.0138C17.05 23.1809 17.2152 23.348 17.3807 23.5148L17.5876 23.7232L17.6574 23.794C17.9617 24.1028 18.2656 24.4112 18.5923 24.6966L18.5924 24.6967C19.079 25.1353 19.3223 25.3546 19.5592 25.5808C19.7961 25.807 20.0266 26.04 20.4876 26.5061L20.5405 26.5596L20.5405 26.5596L20.5405 26.5596L20.5405 26.5596L20.5405 26.5596L20.5405 26.5597L20.5405 26.5597C20.7721 26.794 21.0037 27.0283 21.2358 27.262L21.4154 27.4429C21.8688 27.9037 22.337 28.3201 22.8304 28.743ZM24.9923 20.4194C27.2445 20.6697 29.1301 21.4365 30.9377 22.7976C30.7958 23.1113 30.6438 23.3345 30.3998 23.5766L30.2068 23.769L30.0054 23.9664L29.8116 24.16C29.4839 24.4845 29.1498 24.7969 28.7997 25.0971C28.3656 25.4753 27.9575 25.8737 27.5533 26.2833L27.3397 26.4982C27.1177 26.7215 26.8961 26.9451 26.6746 27.1688C26.38 27.4662 26.0851 27.7633 25.79 28.0602L25.5849 28.268C25.4255 28.4283 25.2632 28.586 25.1004 28.743H24.9923V20.4194ZM34.9374 29.4997C34.6516 27.6515 33.8571 25.701 32.4511 24.4191C32.2143 24.6633 31.9772 24.9013 31.7211 25.1253C31.2594 25.5207 30.8184 25.9307 30.3877 26.3594L30.1566 26.5912L29.6566 27.0907C29.3981 27.3499 29.1395 27.6091 28.8803 27.8677C28.7095 28.038 28.5389 28.2084 28.3684 28.379L28.123 28.6248L27.8905 28.8565L27.6696 29.0785C27.5745 29.1737 27.5072 29.2411 27.4414 29.31C27.2816 29.4773 27.1308 29.6532 26.6138 30.2564H34.9374V29.4997ZM15.2635 24.4191C16.1219 25.144 16.9565 25.8932 17.7497 26.6891L18.1286 27.0663C18.5088 27.4446 18.8887 27.8232 19.2684 28.2019C19.4324 28.3653 19.5965 28.5286 19.7607 28.6919C19.9978 28.9277 20.2345 29.1638 20.4712 29.4L20.6954 29.6225L20.8999 29.827L21.0812 30.0076L21.0812 30.0076C21.1607 30.0952 21.1907 30.1282 21.202 30.1668C21.2089 30.1901 21.2089 30.2156 21.2089 30.2564H12.8853C12.8853 28.2742 13.7421 26.0065 15.1229 24.5495L15.2635 24.4191ZM34.9374 32.4183H26.6138C26.6138 32.4425 26.6138 32.4619 26.6171 32.4806C26.6302 32.5553 26.6954 32.6209 27.0201 32.9478L27.0201 32.9478L27.1982 33.1252L27.5706 33.498C27.7668 33.6935 27.9628 33.889 28.1583 34.085L28.2838 34.211L28.2838 34.211C28.8203 34.7499 29.3559 35.288 29.9315 35.7858C30.0522 35.8867 30.1717 35.9891 30.2892 36.0937C30.6862 36.5722 31.0864 36.9864 31.5547 37.3942L31.8025 37.6071C32.0541 37.8241 32.3062 38.0403 32.5592 38.2556C33.9421 36.6949 34.9374 34.5152 34.9374 32.4183ZM12.8853 32.4183H21.2089C20.7869 32.9107 20.37 33.3815 19.9126 33.8371L19.7325 34.0175C19.6078 34.1422 19.483 34.2668 19.3581 34.3913C19.1694 34.5795 18.9812 34.7682 18.7931 34.957C18.2363 35.5141 17.6785 36.0612 17.0787 36.5726C16.7507 36.8599 16.4452 37.1698 16.1393 37.4802L16.0742 37.5462L15.8673 37.7546C15.7018 37.9214 15.5367 38.0885 15.3716 38.2556C14.9699 37.8791 14.6758 37.504 14.3919 37.0328L14.1787 36.6827C13.7364 35.9063 13.4238 35.1655 13.1826 34.3033L13.0948 34.0062L13.012 33.7151L12.938 33.4556C12.9235 33.3783 12.913 33.3223 12.9054 33.2659C12.8853 33.1176 12.8853 32.9666 12.8853 32.4183ZM25.5327 30.5803C25.322 30.1526 25.0957 29.9263 24.668 29.7155C24.0309 29.5722 23.4589 29.5656 22.8649 29.8583C22.4756 30.1783 22.3186 30.4521 22.2079 30.9443C22.1646 31.5933 22.2053 32.107 22.6276 32.6207C23.1413 33.043 23.655 33.0837 24.304 33.0404C24.7962 32.9296 25.07 32.7727 25.39 32.3834C25.6827 31.7894 25.6761 31.2174 25.5327 30.5803Z" fill="#FEAA05"/>
<path d="M24.9923 15.4469C25.0807 15.4509 25.1691 15.4549 25.2602 15.459C26.684 15.5349 27.9717 15.847 29.3163 16.3116C29.4428 16.354 29.5693 16.3964 29.6997 16.44C33.6596 17.8585 36.9501 20.9259 38.8088 24.6772C39.6928 26.6238 40.1866 28.6793 40.1624 30.8132C40.1599 31.0527 40.1602 31.292 40.1609 31.5315C40.1584 32.9626 40.1118 34.4501 39.6059 35.8031C39.5627 35.9246 39.5627 35.9246 39.5186 36.0486C39.4351 36.2807 39.3487 36.5115 39.2613 36.7422C39.219 36.8577 39.1766 36.9733 39.133 37.0923C37.8098 40.4874 35.2789 43.2796 32.1268 45.0658C32.0621 45.1043 31.9973 45.1429 31.9306 45.1826C30.0763 46.2845 28.0082 46.9591 25.8571 47.1197C25.7196 47.1383 25.5821 47.157 25.4404 47.1762C23.2351 47.4586 20.9218 47.1956 18.8307 46.4711C18.7589 46.4471 18.6871 46.4231 18.6131 46.3984C16.2768 45.6144 14.2769 44.3309 12.4529 42.6876C12.3796 42.6223 12.3063 42.5569 12.2308 42.4896C11.2503 41.563 10.4248 40.3893 9.75047 39.2285C9.71346 39.1664 9.67644 39.1043 9.63831 39.0403C7.62452 35.6274 7.22737 31.8312 7.9128 27.9863C7.9337 27.8688 7.9546 27.7513 7.97614 27.6303C8.43666 25.5101 9.51101 23.5242 10.8315 21.8247C10.907 21.727 10.9825 21.6293 11.0603 21.5286C12.3943 19.8506 13.9446 18.5541 15.804 17.5007C15.8661 17.4654 15.9283 17.43 15.9923 17.3936C18.7756 15.8363 21.8286 15.2943 24.9923 15.4469ZM17.6417 19.2303C17.5168 19.2793 17.3919 19.3284 17.2633 19.3789C14.2342 20.7853 11.9192 23.7485 10.7234 26.7972C9.82034 29.3919 9.75672 31.9224 10.3991 34.5803C10.417 34.6565 10.4349 34.7328 10.4534 34.8114C10.9198 36.7197 11.9296 38.507 13.2096 39.9852C13.2564 40.0401 13.3032 40.095 13.3514 40.1516C15.1865 42.2951 17.4162 43.6651 20.1279 44.4172C20.2574 44.4578 20.3868 44.4983 20.5202 44.5401C24.0012 45.5423 27.8433 44.7686 30.9582 43.0846C31.4828 42.7725 31.9671 42.4101 32.4511 42.039C32.6167 41.9145 32.6167 41.9145 32.7856 41.7874C35.6991 39.4603 37.1791 36.2982 37.8168 32.6759C38.1795 29.2985 37.1471 25.7921 35.0455 23.1218C33.7233 21.5299 32.2337 20.2903 30.3973 19.3384C30.3283 19.3015 30.2594 19.2645 30.1884 19.2265C28.9355 18.5601 27.678 18.2059 26.2895 17.9331C26.1615 17.9065 26.0334 17.8799 25.9015 17.8525C23.1794 17.3547 20.0545 17.9071 17.6417 19.2303Z" fill="#05B105"/>
<path d="M32.4512 0.745361C32.6427 1.67451 32.7045 2.58266 32.7015 3.52924C32.7012 3.75052 32.7037 3.97164 32.7064 4.1929C32.7187 6.73704 31.87 8.86598 30.073 10.6904C29.3599 11.4048 28.5652 11.9144 27.6949 12.42C27.6139 12.47 27.5329 12.52 27.4495 12.5716C26.7458 12.9927 25.9782 13.256 25.2085 13.5302C25.0587 13.5849 24.9097 13.6418 24.7615 13.7006C24.3778 13.8521 24.1133 13.9334 23.6952 13.9334C23.4752 13.0003 23.4388 12.0807 23.439 11.1272C23.4385 10.8814 23.4346 10.6359 23.4305 10.3902C23.4128 8.08503 24.2154 5.76309 25.8241 4.07656C26.4334 3.46349 27.067 2.9322 27.803 2.47493C27.888 2.41878 27.973 2.36262 28.0605 2.30476C28.7655 1.85483 29.5042 1.56701 30.2892 1.28585C30.3985 1.24433 30.5077 1.2028 30.6203 1.16002C31.2334 0.928443 31.7891 0.745361 32.4512 0.745361Z" fill="#05B105"/>
<path d="M16.885 7.33936C18.3338 7.45778 19.7644 8.07868 20.763 9.16351C21.6644 10.2811 21.8928 11.2736 21.871 12.6835C21.87 12.8038 21.8691 12.9241 21.8681 13.0481C21.8655 13.3432 21.862 13.6383 21.8575 13.9334C20.307 13.8052 18.8802 13.0441 17.8579 11.8795C17.6322 11.6042 17.4669 11.3373 17.3174 11.0147C17.2753 10.9294 17.2332 10.8441 17.1898 10.7563C16.7391 9.66834 16.8449 8.49398 16.885 7.33936Z" fill="#05B105"/>
</svg>
