<svg width="231" height="41" viewBox="0 0 231 41" fill="none" xmlns="http://www.w3.org/2000/svg">
<path fill-rule="evenodd" clip-rule="evenodd" d="M20.8269 12.8723L21.0501 12.8824C22.2366 12.9456 23.3097 13.2057 24.4302 13.5929L24.7497 13.6999C28.0496 14.8819 30.7917 17.4382 32.3406 20.5642C33.0773 22.1864 33.4888 23.8993 33.4686 25.6775C33.4665 25.8771 33.4668 26.0766 33.4674 26.2762C33.4652 27.4687 33.4264 28.7083 33.0048 29.8358L32.9321 30.0404C32.8625 30.2338 32.7905 30.4262 32.7177 30.6184L32.6107 30.9101C31.5081 33.7394 29.399 36.0663 26.7723 37.5547L26.6088 37.6521C25.0636 38.5703 23.3401 39.1325 21.5475 39.2663L21.2002 39.3134C19.3625 39.5487 17.4348 39.3296 15.6922 38.7258L15.5108 38.6653C13.564 38.0119 11.8973 36.9423 10.3774 35.5729L10.1923 35.4079C9.37517 34.6357 8.68729 33.6576 8.12533 32.6903L8.03186 32.5334C6.35371 29.6894 6.02275 26.5259 6.59394 23.3218L6.64672 23.0251C7.03049 21.2583 7.92578 19.6034 9.02615 18.1871L9.21687 17.9404C10.3285 16.542 11.6204 15.4616 13.1699 14.5838L13.3269 14.4945C15.6463 13.1968 18.1905 12.7451 20.8269 12.8723ZM22.4949 15.0762C22.688 15.1177 22.8813 15.156 23.0751 15.1936C25.8173 15.8074 28.3451 17.8501 29.8407 20.1802C31.4462 22.889 31.9283 25.7464 31.1863 28.8168L31.141 29.0094C30.7522 30.6004 29.9101 32.0877 28.8442 33.3209L28.7289 33.4581C27.8211 34.5363 26.7473 35.3771 25.4967 36.0269C25.3852 36.0851 25.2744 36.1446 25.1642 36.2052C22.5788 37.6235 19.3724 37.7777 16.5621 36.9924C13.638 36.106 11.1388 34.1115 9.66938 31.4179C8.26787 28.7207 7.90855 25.7508 8.79315 22.8403C9.71428 19.9621 11.7183 17.6041 14.341 16.1152C14.5617 16.012 14.78 15.9207 15.0099 15.8404C15.2197 15.763 15.4165 15.6743 15.619 15.58C16.0449 15.3891 16.4721 15.2663 16.9252 15.1581L17.1643 15.1003C19.006 14.6658 20.6519 14.6796 22.4949 15.0762ZM17.0434 15.845L16.8625 15.8946C14.1327 16.6648 11.8966 18.4861 10.433 20.8952C9.02515 23.4524 8.79245 26.3631 9.47655 29.1771C9.5905 29.5636 9.73802 29.9028 9.92696 30.2581L10.0221 30.4419C10.4897 31.3415 10.9929 32.1759 11.6385 32.9605L11.8145 33.178C12.6852 34.2081 13.901 35.1515 15.1517 35.663L15.3572 35.7689C17.8437 37.0428 20.7774 36.9937 23.3763 36.1641C26.1322 35.258 28.3173 33.3513 29.6713 30.7926C30.969 28.2126 31.0613 25.2595 30.1776 22.5332C29.557 20.7956 28.3399 19.0344 26.8624 17.9169L26.6182 17.7311C25.2229 16.7189 23.7673 16.0521 22.088 15.6648L21.7844 15.5923C20.2206 15.2891 18.5675 15.4174 17.0434 15.845ZM19.0252 35.2126V28.2763C18.9966 28.2763 18.9771 28.2763 18.9588 28.281C18.9195 28.2911 18.8857 28.323 18.7793 28.4234L18.7793 28.4234L18.5773 28.6285C18.4242 28.783 18.2714 28.9377 18.1188 29.0926C18.0625 29.1498 18.0063 29.2072 17.9501 29.2645L17.95 29.2646C17.6559 29.5647 17.3616 29.8651 17.0477 30.1443C16.5594 30.5612 16.1024 31.0037 15.6479 31.4568C15.4946 31.6101 15.3412 31.7633 15.1871 31.9157C15.085 32.0167 14.983 32.118 14.8813 32.2194L14.7358 32.3648L14.7142 32.386C14.4522 32.6442 14.2112 32.8817 14.0707 33.2308C14.8991 33.9332 15.8954 34.4316 16.9205 34.7756L17.1786 34.8579C17.8162 35.0622 18.3383 35.1439 19.0252 35.2126ZM20.8269 28.2763C21.2206 28.6138 21.5858 28.9347 21.9469 29.3006L22.0784 29.4331C22.2485 29.6046 22.4182 29.7766 22.5878 29.9485L22.6244 29.9856C23.0949 30.4618 23.5658 30.9303 24.0751 31.3656C24.3897 31.642 24.6855 31.9378 24.9814 32.2337L25.0607 32.3131L25.2722 32.5212L25.4717 32.7202L25.6522 32.8996L25.6523 32.8996C25.7196 32.9784 25.7519 33.0161 25.7673 33.0597C25.7814 33.0997 25.7814 33.1446 25.7814 33.2308C24.405 34.4291 22.6082 35.0147 20.8269 35.2126V28.2763ZM19.0252 23.9523V17.1061C18.9475 17.1061 18.8695 17.1053 18.7915 17.1044H18.7914H18.7914H18.7913H18.7913H18.7912H18.7912C18.4847 17.1011 18.1772 17.0977 17.8754 17.1457L17.6835 17.2022L17.4641 17.2662L17.2405 17.3369C16.591 17.5379 16.0032 17.7716 15.4146 18.115L15.1517 18.2772C15.0705 18.3253 14.9861 18.3707 14.9015 18.4161L14.9014 18.4161C14.5511 18.6044 14.1988 18.7937 14.0707 19.178C14.2083 19.3173 14.3459 19.4565 14.4838 19.5955L14.6563 19.7692L14.7144 19.8282L14.7144 19.8282L14.7145 19.8282C14.968 20.0855 15.2213 20.3425 15.4936 20.5804L15.4936 20.5804L15.4937 20.5805C15.8991 20.946 16.1019 21.1287 16.2993 21.3172C16.4966 21.5056 16.6886 21.6997 17.0724 22.0877L17.0725 22.0878L17.0726 22.088L17.0727 22.088L17.0729 22.0882L17.0729 22.0883L17.1162 22.1321L17.1162 22.1321L17.1163 22.1321L17.1163 22.1321L17.1163 22.1321L17.1163 22.1321L17.1163 22.1321C17.3095 22.3276 17.5027 22.5232 17.6964 22.7182L17.8461 22.8689C18.224 23.2529 18.6141 23.5999 19.0252 23.9523ZM20.8269 17.016C22.7037 17.2246 24.275 17.8636 25.7814 18.9978C25.6631 19.2593 25.5365 19.4453 25.3331 19.6471L25.1723 19.8073L25.0044 19.9718L24.8429 20.1332C24.5698 20.4036 24.2915 20.6639 23.9997 20.9141C23.638 21.2293 23.2979 21.5612 22.961 21.9026L22.783 22.0817C22.598 22.2677 22.4134 22.4541 22.2288 22.6405C21.9833 22.8884 21.7375 23.136 21.4916 23.3833L21.3207 23.5565C21.1878 23.6901 21.0526 23.8215 20.917 23.9523H20.8269V17.016ZM29.1144 24.5829C28.8763 23.0427 28.2142 21.4174 27.0425 20.3491C26.8452 20.5526 26.6476 20.751 26.4341 20.9376C26.0495 21.2671 25.6819 21.6087 25.323 21.966L25.1304 22.1591L24.7138 22.5754C24.4983 22.7915 24.2828 23.0074 24.0668 23.2229C23.9246 23.3648 23.7824 23.5069 23.6403 23.649L23.4357 23.8538L23.2421 24.0469L23.0579 24.2319C22.9787 24.3113 22.9226 24.3674 22.8678 24.4249C22.7346 24.5643 22.6089 24.7109 22.1781 25.2135L22.1781 25.2135H29.1144V24.5829ZM12.7195 20.3491C13.4349 20.9532 14.1303 21.5776 14.7914 22.2408L15.1071 22.5551C15.424 22.8703 15.7405 23.1858 16.057 23.5014C16.1936 23.6376 16.3303 23.7737 16.4672 23.9098C16.6647 24.1063 16.862 24.303 17.0593 24.4999L17.2461 24.6853L17.4165 24.8557L17.5676 25.0062L17.5676 25.0062C17.6338 25.0791 17.6588 25.1067 17.6683 25.1388C17.674 25.1583 17.674 25.1795 17.674 25.2135H10.7377C10.7377 23.5617 11.4517 21.6719 12.6023 20.4578L12.7195 20.3491ZM29.1144 27.0151H22.1781C22.1781 27.0353 22.1781 27.0514 22.1808 27.067C22.1917 27.1293 22.2461 27.184 22.5167 27.4563L22.6651 27.6042L22.9755 27.9149C23.1389 28.0778 23.3023 28.2407 23.4652 28.4041L23.5697 28.509L23.5698 28.509C24.0168 28.9581 24.4632 29.4065 24.9429 29.8214C25.0434 29.9054 25.143 29.9907 25.2409 30.0779C25.5718 30.4767 25.9053 30.8218 26.2955 31.1617L26.502 31.3391C26.7117 31.5199 26.9218 31.7001 27.1326 31.8796C28.285 30.579 29.1144 28.7625 29.1144 27.0151ZM10.7377 27.0151H17.674C17.3223 27.4254 16.975 27.8177 16.5937 28.1975L16.4437 28.3478C16.3398 28.4517 16.2358 28.5556 16.1317 28.6593C15.9744 28.8161 15.8176 28.9733 15.6609 29.1306C15.1968 29.595 14.732 30.0508 14.2322 30.477C13.9588 30.7164 13.7043 30.9747 13.4493 31.2334L13.3951 31.2884L13.2227 31.462C13.0848 31.601 12.9472 31.7402 12.8096 31.8796C12.4748 31.5657 12.2298 31.2532 11.9932 30.8605L11.8155 30.5688C11.4469 29.9218 11.1865 29.3044 10.9854 28.5859L10.9122 28.3384L10.8433 28.0958L10.7816 27.8795L10.7816 27.8795C10.7695 27.8151 10.7607 27.7684 10.7544 27.7214C10.7377 27.5979 10.7377 27.472 10.7377 27.0151ZM21.2773 25.4837C21.1017 25.1273 20.9131 24.9387 20.5566 24.7631C20.0257 24.6436 19.5491 24.6381 19.0541 24.882C18.7297 25.1487 18.5989 25.3769 18.5066 25.7871C18.4705 26.3279 18.5044 26.7559 18.8563 27.184C19.2844 27.5359 19.7125 27.5699 20.2533 27.5338C20.6635 27.4415 20.8917 27.3107 21.1584 26.9863C21.4022 26.4913 21.3968 26.0146 21.2773 25.4837Z" fill="#FEAA05"/>
<path d="M20.8269 12.8723C20.9006 12.8756 20.9742 12.879 21.0501 12.8824C22.2366 12.9456 23.3097 13.2057 24.4302 13.5929C24.5356 13.6282 24.641 13.6635 24.7497 13.6999C28.0496 14.8819 30.7917 17.4382 32.3406 20.5642C33.0773 22.1864 33.4888 23.8993 33.4686 25.6775C33.4665 25.8771 33.4668 26.0766 33.4674 26.2762C33.4652 27.4687 33.4264 28.7083 33.0048 29.8358C32.9688 29.9371 32.9688 29.9371 32.9321 30.0404C32.8625 30.2338 32.7905 30.4262 32.7177 30.6184C32.6824 30.7147 32.6471 30.8109 32.6107 30.9101C31.5081 33.7394 29.399 36.0663 26.7723 37.5547C26.7183 37.5868 26.6644 37.619 26.6088 37.6521C25.0636 38.5703 23.3401 39.1325 21.5475 39.2663C21.4329 39.2818 21.3183 39.2974 21.2002 39.3134C19.3625 39.5487 17.4348 39.3296 15.6922 38.7258C15.6324 38.7058 15.5725 38.6858 15.5108 38.6653C13.564 38.0119 11.8973 36.9423 10.3774 35.5729C10.3163 35.5185 10.2552 35.464 10.1923 35.4079C9.37517 34.6357 8.68729 33.6576 8.12533 32.6903C8.09449 32.6385 8.06364 32.5868 8.03186 32.5334C6.35371 29.6894 6.02275 26.5259 6.59394 23.3218C6.61136 23.2239 6.62877 23.126 6.64672 23.0251C7.03049 21.2583 7.92578 19.6034 9.02615 18.1871C9.08909 18.1057 9.15203 18.0243 9.21687 17.9404C10.3285 16.542 11.6204 15.4616 13.1699 14.5838C13.2217 14.5544 13.2735 14.5249 13.3269 14.4945C15.6463 13.1968 18.1905 12.7451 20.8269 12.8723ZM14.7013 16.0251C14.5973 16.066 14.4932 16.1069 14.386 16.149C11.8618 17.321 9.93259 19.7903 8.93607 22.3309C8.18356 24.4931 8.13054 26.6019 8.66582 28.8168C8.68077 28.8803 8.69572 28.9439 8.71113 29.0094C9.09975 30.5996 9.94126 32.089 11.008 33.3209C11.0469 33.3666 11.0859 33.4124 11.1261 33.4596C12.6554 35.2458 14.5135 36.3875 16.7732 37.0142C16.8811 37.048 16.989 37.0818 17.1001 37.1166C20.001 37.9518 23.2027 37.307 25.7984 35.9037C26.2356 35.6436 26.6392 35.3416 27.0425 35.0324C27.1805 34.9286 27.1805 34.9286 27.3212 34.8227C29.7492 32.8835 30.9826 30.2484 31.5139 27.2298C31.8162 24.4153 30.9559 21.4933 29.2045 19.2681C28.1027 17.9415 26.8614 16.9085 25.331 16.1152C25.2736 16.0844 25.2161 16.0537 25.157 16.022C24.1129 15.4666 23.065 15.1715 21.9079 14.9441C21.8012 14.922 21.6944 14.8998 21.5845 14.8769C19.3161 14.4622 16.712 14.9225 14.7013 16.0251Z" fill="#05B105"/>
<path d="M27.0425 0.621124C27.2021 1.39541 27.2537 2.15221 27.2511 2.94102C27.2508 3.12542 27.253 3.30969 27.2552 3.49407C27.2654 5.61419 26.5582 7.38831 25.0607 8.90866C24.4665 9.50399 23.8042 9.92864 23.0789 10.35C23.0115 10.3917 22.944 10.4334 22.8745 10.4763C22.288 10.8273 21.6483 11.0467 21.007 11.2752C20.8821 11.3207 20.758 11.3682 20.6344 11.4171C20.3147 11.5434 20.0943 11.6111 19.7459 11.6111C19.5626 10.8335 19.5322 10.0672 19.5323 9.27264C19.5319 9.06785 19.5287 8.86324 19.5253 8.65847C19.5106 6.73751 20.1794 4.80256 21.52 3.39713C22.0277 2.88623 22.5557 2.44349 23.169 2.06244C23.2398 2.01564 23.3107 1.96884 23.3837 1.92063C23.9711 1.54568 24.5867 1.30583 25.2409 1.07153C25.3319 1.03693 25.423 1.00233 25.5168 0.966673C26.0277 0.773693 26.4908 0.621124 27.0425 0.621124Z" fill="#05B105"/>
<path d="M14.0707 6.11612C15.2781 6.21481 16.4703 6.73222 17.3024 7.63625C18.0536 8.56758 18.2439 9.39464 18.2258 10.5695C18.225 10.6698 18.2242 10.7701 18.2233 10.8734C18.2212 11.1193 18.2183 11.3652 18.2145 11.6111C16.9225 11.5043 15.7334 10.8701 14.8815 9.89956C14.6935 9.67015 14.5557 9.44778 14.4311 9.17891C14.396 9.10784 14.3609 9.03677 14.3248 8.96355C13.9492 8.05694 14.0374 7.07831 14.0707 6.11612Z" fill="#05B105"/>
<path d="M50.596 34.336C49.1587 34.336 47.8893 34.0933 46.788 33.608C45.6867 33.104 44.8187 32.3947 44.184 31.48C43.5493 30.5467 43.2227 29.4173 43.204 28.092H46.984C47.0213 29.0067 47.348 29.7813 47.964 30.416C48.5987 31.032 49.4667 31.34 50.568 31.34C51.52 31.34 52.276 31.116 52.836 30.668C53.396 30.2013 53.676 29.5853 53.676 28.82C53.676 28.0173 53.424 27.392 52.92 26.944C52.4347 26.496 51.7813 26.132 50.96 25.852C50.1387 25.572 49.2613 25.2733 48.328 24.956C46.816 24.4333 45.6587 23.7613 44.856 22.94C44.072 22.1187 43.68 21.0267 43.68 19.664C43.6613 18.5067 43.932 17.5173 44.492 16.696C45.0707 15.856 45.8547 15.212 46.844 14.764C47.8333 14.2973 48.972 14.064 50.26 14.064C51.5667 14.064 52.7147 14.2973 53.704 14.764C54.712 15.2307 55.496 15.884 56.056 16.724C56.6347 17.564 56.9427 18.5627 56.98 19.72H53.144C53.1253 19.0293 52.8547 18.4227 52.332 17.9C51.828 17.3587 51.1187 17.088 50.204 17.088C49.42 17.0693 48.7573 17.2653 48.216 17.676C47.6933 18.068 47.432 18.6467 47.432 19.412C47.432 20.0653 47.6373 20.588 48.048 20.98C48.4587 21.3533 49.0187 21.6707 49.728 21.932C50.4373 22.1933 51.2493 22.4733 52.164 22.772C53.1347 23.108 54.0213 23.5 54.824 23.948C55.6267 24.396 56.2707 24.9933 56.756 25.74C57.2413 26.468 57.484 27.4107 57.484 28.568C57.484 29.5947 57.2227 30.5467 56.7 31.424C56.1773 32.3013 55.4027 33.0107 54.376 33.552C53.3493 34.0747 52.0893 34.336 50.596 34.336ZM66.155 34C64.699 34 63.5324 33.6453 62.655 32.936C61.7777 32.2267 61.339 30.9667 61.339 29.156V23.108H58.959V20.112H61.339L61.759 16.388H64.923V20.112H68.675V23.108H64.923V29.184C64.923 29.856 65.063 30.3227 65.343 30.584C65.6417 30.8267 66.1457 30.948 66.855 30.948H68.591V34H66.155ZM76.4002 34.336C74.6642 34.336 73.3202 33.7947 72.3682 32.712C71.4349 31.6293 70.9682 30.0427 70.9682 27.952V20.112H74.5242V27.616C74.5242 28.8107 74.7669 29.7253 75.2522 30.36C75.7375 30.9947 76.5029 31.312 77.5482 31.312C78.5375 31.312 79.3495 30.9573 79.9842 30.248C80.6375 29.5387 80.9642 28.5493 80.9642 27.28V20.112H84.5482V34H81.3842L81.1042 31.648C80.6749 32.4693 80.0495 33.1227 79.2282 33.608C78.4255 34.0933 77.4829 34.336 76.4002 34.336ZM94.0513 34.336C92.7447 34.336 91.578 34.0187 90.5513 33.384C89.5247 32.7493 88.7127 31.8813 88.1153 30.78C87.518 29.6787 87.2193 28.428 87.2193 27.028C87.2193 25.628 87.518 24.3867 88.1153 23.304C88.7127 22.2027 89.5247 21.344 90.5513 20.728C91.578 20.0933 92.7447 19.776 94.0513 19.776C95.0967 19.776 96.0113 19.972 96.7953 20.364C97.5793 20.756 98.214 21.3067 98.6993 22.016V13.84H102.283V34H99.0913L98.6993 32.012C98.2513 32.628 97.654 33.1693 96.9073 33.636C96.1793 34.1027 95.2273 34.336 94.0513 34.336ZM94.8073 31.2C95.9647 31.2 96.9073 30.8173 97.6353 30.052C98.382 29.268 98.7553 28.2693 98.7553 27.056C98.7553 25.8427 98.382 24.8533 97.6353 24.088C96.9073 23.304 95.9647 22.912 94.8073 22.912C93.6687 22.912 92.726 23.2947 91.9793 24.06C91.2327 24.8253 90.8593 25.8147 90.8593 27.028C90.8593 28.2413 91.2327 29.24 91.9793 30.024C92.726 30.808 93.6687 31.2 94.8073 31.2ZM111.757 34.336C110.45 34.336 109.284 34.0187 108.257 33.384C107.23 32.7493 106.418 31.8813 105.821 30.78C105.224 29.6787 104.925 28.428 104.925 27.028C104.925 25.628 105.224 24.3867 105.821 23.304C106.418 22.2027 107.23 21.344 108.257 20.728C109.284 20.0933 110.45 19.776 111.757 19.776C112.802 19.776 113.717 19.972 114.501 20.364C115.285 20.756 115.92 21.3067 116.405 22.016V13.84H119.989V34H116.797L116.405 32.012C115.957 32.628 115.36 33.1693 114.613 33.636C113.885 34.1027 112.933 34.336 111.757 34.336ZM112.513 31.2C113.67 31.2 114.613 30.8173 115.341 30.052C116.088 29.268 116.461 28.2693 116.461 27.056C116.461 25.8427 116.088 24.8533 115.341 24.088C114.613 23.304 113.67 22.912 112.513 22.912C111.374 22.912 110.432 23.2947 109.685 24.06C108.938 24.8253 108.565 25.8147 108.565 27.028C108.565 28.2413 108.938 29.24 109.685 30.024C110.432 30.808 111.374 31.2 112.513 31.2ZM124.815 40.16L128.035 33.076H127.195L121.791 20.112H125.683L129.575 29.884L133.635 20.112H137.443L128.623 40.16H124.815ZM139.31 34V14.4H147.178C149.212 14.4 150.762 14.876 151.826 15.828C152.908 16.7613 153.45 17.9653 153.45 19.44C153.45 20.672 153.114 21.6613 152.442 22.408C151.788 23.136 150.986 23.6307 150.034 23.892C151.154 24.116 152.078 24.676 152.806 25.572C153.534 26.4493 153.898 27.476 153.898 28.652C153.898 30.2013 153.338 31.48 152.218 32.488C151.098 33.496 149.511 34 147.458 34H139.31ZM142.894 22.632H146.646C147.654 22.632 148.428 22.3987 148.97 21.932C149.511 21.4653 149.782 20.8027 149.782 19.944C149.782 19.1227 149.511 18.4787 148.97 18.012C148.447 17.5267 147.654 17.284 146.59 17.284H142.894V22.632ZM142.894 31.088H146.898C147.962 31.088 148.783 30.8453 149.362 30.36C149.959 29.856 150.258 29.156 150.258 28.26C150.258 27.3453 149.95 26.6267 149.334 26.104C148.718 25.5813 147.887 25.32 146.842 25.32H142.894V31.088ZM161.538 34.336C159.802 34.336 158.458 33.7947 157.506 32.712C156.572 31.6293 156.106 30.0427 156.106 27.952V20.112H159.662V27.616C159.662 28.8107 159.904 29.7253 160.39 30.36C160.875 30.9947 161.64 31.312 162.686 31.312C163.675 31.312 164.487 30.9573 165.122 30.248C165.775 29.5387 166.102 28.5493 166.102 27.28V20.112H169.686V34H166.522L166.242 31.648C165.812 32.4693 165.187 33.1227 164.366 33.608C163.563 34.0933 162.62 34.336 161.538 34.336ZM179.189 34.336C177.882 34.336 176.716 34.0187 175.689 33.384C174.662 32.7493 173.85 31.8813 173.253 30.78C172.656 29.6787 172.357 28.428 172.357 27.028C172.357 25.628 172.656 24.3867 173.253 23.304C173.85 22.2027 174.662 21.344 175.689 20.728C176.716 20.0933 177.882 19.776 179.189 19.776C180.234 19.776 181.149 19.972 181.933 20.364C182.717 20.756 183.352 21.3067 183.837 22.016V13.84H187.421V34H184.229L183.837 32.012C183.389 32.628 182.792 33.1693 182.045 33.636C181.317 34.1027 180.365 34.336 179.189 34.336ZM179.945 31.2C181.102 31.2 182.045 30.8173 182.773 30.052C183.52 29.268 183.893 28.2693 183.893 27.056C183.893 25.8427 183.52 24.8533 182.773 24.088C182.045 23.304 181.102 22.912 179.945 22.912C178.806 22.912 177.864 23.2947 177.117 24.06C176.37 24.8253 175.997 25.8147 175.997 27.028C175.997 28.2413 176.37 29.24 177.117 30.024C177.864 30.808 178.806 31.2 179.945 31.2ZM196.894 34.336C195.588 34.336 194.421 34.0187 193.394 33.384C192.368 32.7493 191.556 31.8813 190.958 30.78C190.361 29.6787 190.062 28.428 190.062 27.028C190.062 25.628 190.361 24.3867 190.958 23.304C191.556 22.2027 192.368 21.344 193.394 20.728C194.421 20.0933 195.588 19.776 196.894 19.776C197.94 19.776 198.854 19.972 199.638 20.364C200.422 20.756 201.057 21.3067 201.542 22.016V13.84H205.126V34H201.934L201.542 32.012C201.094 32.628 200.497 33.1693 199.75 33.636C199.022 34.1027 198.07 34.336 196.894 34.336ZM197.65 31.2C198.808 31.2 199.75 30.8173 200.478 30.052C201.225 29.268 201.598 28.2693 201.598 27.056C201.598 25.8427 201.225 24.8533 200.478 24.088C199.75 23.304 198.808 22.912 197.65 22.912C196.512 22.912 195.569 23.2947 194.822 24.06C194.076 24.8253 193.702 25.8147 193.702 27.028C193.702 28.2413 194.076 29.24 194.822 30.024C195.569 30.808 196.512 31.2 197.65 31.2ZM210.148 17.956C209.495 17.956 208.953 17.76 208.524 17.368C208.113 16.976 207.908 16.4813 207.908 15.884C207.908 15.2867 208.113 14.8013 208.524 14.428C208.953 14.036 209.495 13.84 210.148 13.84C210.801 13.84 211.333 14.036 211.744 14.428C212.173 14.8013 212.388 15.2867 212.388 15.884C212.388 16.4813 212.173 16.976 211.744 17.368C211.333 17.76 210.801 17.956 210.148 17.956ZM208.356 34V20.112H211.94V34H208.356ZM221.869 34.336C220.469 34.336 219.228 34.0373 218.145 33.44C217.062 32.8427 216.213 32.0027 215.597 30.92C214.981 29.8373 214.673 28.5867 214.673 27.168C214.673 25.7307 214.972 24.452 215.569 23.332C216.185 22.212 217.025 21.344 218.089 20.728C219.172 20.0933 220.441 19.776 221.897 19.776C223.26 19.776 224.464 20.0747 225.509 20.672C226.554 21.2693 227.366 22.0907 227.945 23.136C228.542 24.1627 228.841 25.3107 228.841 26.58C228.841 26.7853 228.832 27 228.813 27.224C228.813 27.448 228.804 27.6813 228.785 27.924H218.229C218.304 29.0067 218.677 29.856 219.349 30.472C220.04 31.088 220.87 31.396 221.841 31.396C222.569 31.396 223.176 31.2373 223.661 30.92C224.165 30.584 224.538 30.1547 224.781 29.632H228.421C228.16 30.5093 227.721 31.312 227.105 32.04C226.508 32.7493 225.761 33.3093 224.865 33.72C223.988 34.1307 222.989 34.336 221.869 34.336ZM221.897 22.688C221.02 22.688 220.245 22.94 219.573 23.444C218.901 23.9293 218.472 24.676 218.285 25.684H225.201C225.145 24.7693 224.809 24.0413 224.193 23.5C223.577 22.9587 222.812 22.688 221.897 22.688Z" fill="#05B105"/>
</svg>
