<svg width="36" height="36" viewBox="0 0 36 36" fill="none" xmlns="http://www.w3.org/2000/svg">
<path d="M20.25 21.807C20.56 21.807 20.8325 21.6895 21.0675 21.4545C21.3035 21.2185 21.4215 20.946 21.4215 20.637C21.4215 20.327 21.3035 20.0545 21.0675 19.8195C20.8315 19.5845 20.559 19.4665 20.25 19.4655C19.94 19.4655 19.6675 19.5835 19.4325 19.8195C19.1975 20.0555 19.0795 20.328 19.0785 20.637C19.0785 20.947 19.1965 21.2195 19.4325 21.4545C19.6675 21.6895 19.94 21.807 20.25 21.807ZM20.25 17.5845C20.429 17.5845 20.584 17.523 20.715 17.4C20.847 17.277 20.9285 17.13 20.9595 16.959C21.0095 16.563 21.1255 16.23 21.3075 15.96C21.4895 15.691 21.841 15.315 22.362 14.832C22.996 14.256 23.438 13.741 23.688 13.287C23.938 12.835 24.063 12.3155 24.063 11.7285C24.063 10.7185 23.703 9.877 22.983 9.204C22.263 8.53 21.352 8.193 20.25 8.193C19.54 8.193 18.886 8.361 18.288 8.697C17.69 9.033 17.21 9.513 16.848 10.137C16.756 10.291 16.744 10.4525 16.812 10.6215C16.879 10.7905 16.995 10.9085 17.16 10.9755C17.32 11.0435 17.488 11.0515 17.664 10.9995C17.84 10.9475 17.977 10.8445 18.075 10.6905C18.338 10.2885 18.6485 9.987 19.0065 9.786C19.3645 9.586 19.779 9.486 20.25 9.486C20.965 9.486 21.5585 9.6975 22.0305 10.1205C22.5005 10.5445 22.7355 11.092 22.7355 11.763C22.7355 12.171 22.6215 12.5505 22.3935 12.9015C22.1645 13.2515 21.771 13.674 21.213 14.169C20.643 14.659 20.248 15.097 20.028 15.483C19.808 15.869 19.673 16.3485 19.623 16.9215C19.599 17.0865 19.65 17.2385 19.776 17.3775C19.902 17.5155 20.06 17.5845 20.25 17.5845ZM12.1725 25.5C11.4825 25.5 10.9065 25.269 10.4445 24.807C9.9815 24.344 9.75 23.7675 9.75 23.0775V6.9225C9.75 6.2325 9.9815 5.6565 10.4445 5.1945C10.9065 4.7315 11.4825 4.5 12.1725 4.5H28.3275C29.0175 4.5 29.5935 4.7315 30.0555 5.1945C30.5185 5.6565 30.75 6.2325 30.75 6.9225V23.0775C30.75 23.7675 30.519 24.344 30.057 24.807C29.594 25.269 29.0175 25.5 28.3275 25.5H12.1725ZM7.6725 30C6.9825 30 6.4065 29.769 5.9445 29.307C5.4815 28.844 5.25 28.2675 5.25 27.5775V10.6725C5.25 10.4595 5.3215 10.2815 5.4645 10.1385C5.6085 9.9945 5.787 9.9225 6 9.9225C6.213 9.9225 6.3915 9.9945 6.5355 10.1385C6.6795 10.2825 6.751 10.4605 6.75 10.6725V27.5775C6.75 27.8075 6.846 28.019 7.038 28.212C7.231 28.404 7.4425 28.5 7.6725 28.5H24.5775C24.7905 28.5 24.9685 28.5715 25.1115 28.7145C25.2545 28.8575 25.3265 29.036 25.3275 29.25C25.3275 29.463 25.2555 29.6415 25.1115 29.7855C24.9685 29.9285 24.7905 30 24.5775 30H7.6725Z" fill="#212321"/>
</svg>
