<svg width="40" height="40" viewBox="0 0 40 40" fill="none" xmlns="http://www.w3.org/2000/svg">
<path fill-rule="evenodd" clip-rule="evenodd" d="M20.8269 12.8723L21.0501 12.8824C22.2366 12.9456 23.3097 13.2057 24.4302 13.5929L24.7497 13.6999C28.0496 14.8819 30.7917 17.4382 32.3406 20.5642C33.0773 22.1864 33.4888 23.8993 33.4686 25.6775C33.4665 25.8771 33.4668 26.0766 33.4674 26.2762C33.4652 27.4687 33.4264 28.7083 33.0048 29.8358L32.9321 30.0404C32.8625 30.2338 32.7905 30.4262 32.7177 30.6184L32.6107 30.9101C31.5081 33.7394 29.399 36.0663 26.7723 37.5547L26.6088 37.6521C25.0636 38.5703 23.3401 39.1325 21.5475 39.2663L21.2002 39.3134C19.3625 39.5487 17.4348 39.3296 15.6922 38.7258L15.5108 38.6653C13.564 38.0119 11.8973 36.9423 10.3774 35.5729L10.1923 35.4079C9.37517 34.6357 8.68729 33.6576 8.12533 32.6903L8.03186 32.5334C6.35371 29.6894 6.02275 26.5259 6.59394 23.3218L6.64672 23.0251C7.03049 21.2583 7.92578 19.6034 9.02615 18.1871L9.21687 17.9404C10.3285 16.542 11.6204 15.4616 13.1699 14.5838L13.3269 14.4945C15.6463 13.1968 18.1905 12.7451 20.8269 12.8723ZM22.4949 15.0762C22.688 15.1177 22.8813 15.156 23.0751 15.1936C25.8173 15.8074 28.3451 17.8501 29.8407 20.1802C31.4462 22.889 31.9283 25.7464 31.1863 28.8168L31.141 29.0094C30.7522 30.6004 29.9101 32.0877 28.8442 33.3209L28.7289 33.4581C27.8211 34.5363 26.7473 35.3771 25.4967 36.0269C25.3852 36.0851 25.2744 36.1446 25.1642 36.2052C22.5788 37.6235 19.3724 37.7777 16.5621 36.9924C13.638 36.106 11.1388 34.1115 9.66938 31.4179C8.26787 28.7207 7.90855 25.7508 8.79315 22.8403C9.71428 19.9621 11.7183 17.6041 14.341 16.1152C14.5617 16.012 14.78 15.9207 15.0099 15.8404C15.2197 15.763 15.4165 15.6743 15.619 15.58C16.0449 15.3891 16.4721 15.2663 16.9252 15.1581L17.1643 15.1003C19.006 14.6658 20.6519 14.6796 22.4949 15.0762ZM17.0434 15.845L16.8625 15.8946C14.1327 16.6648 11.8966 18.4861 10.433 20.8952C9.02515 23.4524 8.79245 26.3631 9.47655 29.1771C9.5905 29.5636 9.73802 29.9028 9.92696 30.2581L10.0221 30.4419C10.4897 31.3415 10.9929 32.1759 11.6385 32.9605L11.8145 33.178C12.6852 34.2081 13.901 35.1515 15.1517 35.663L15.3572 35.7689C17.8437 37.0428 20.7774 36.9937 23.3763 36.1641C26.1322 35.258 28.3173 33.3513 29.6713 30.7926C30.969 28.2126 31.0613 25.2595 30.1776 22.5332C29.557 20.7956 28.3399 19.0344 26.8624 17.9169L26.6182 17.7311C25.2229 16.7189 23.7673 16.0521 22.088 15.6648L21.7844 15.5923C20.2206 15.2891 18.5675 15.4174 17.0434 15.845ZM19.0252 35.2126V28.2763C18.9966 28.2763 18.9771 28.2763 18.9588 28.281C18.9195 28.2911 18.8857 28.323 18.7793 28.4234L18.7793 28.4234L18.5773 28.6285C18.4242 28.783 18.2714 28.9377 18.1188 29.0926C18.0625 29.1498 18.0063 29.2072 17.9501 29.2645L17.95 29.2646C17.6559 29.5647 17.3616 29.8651 17.0477 30.1443C16.5594 30.5612 16.1024 31.0037 15.6479 31.4568C15.4946 31.6101 15.3412 31.7633 15.1871 31.9157C15.085 32.0167 14.983 32.118 14.8813 32.2194L14.7358 32.3648L14.7142 32.386C14.4522 32.6442 14.2112 32.8817 14.0707 33.2308C14.8991 33.9332 15.8954 34.4316 16.9205 34.7756L17.1786 34.8579C17.8162 35.0622 18.3383 35.1439 19.0252 35.2126ZM20.8269 28.2763C21.2206 28.6138 21.5858 28.9347 21.9469 29.3006L22.0784 29.4331C22.2485 29.6046 22.4182 29.7766 22.5878 29.9485L22.6244 29.9856C23.0949 30.4618 23.5658 30.9303 24.0751 31.3656C24.3897 31.642 24.6855 31.9378 24.9814 32.2337L25.0607 32.3131L25.2722 32.5212L25.4717 32.7202L25.6522 32.8996L25.6523 32.8996C25.7196 32.9784 25.7519 33.0161 25.7673 33.0597C25.7814 33.0997 25.7814 33.1446 25.7814 33.2308C24.405 34.4291 22.6082 35.0147 20.8269 35.2126V28.2763ZM19.0252 23.9523V17.1061C18.9475 17.1061 18.8695 17.1053 18.7915 17.1044H18.7914H18.7914H18.7913H18.7913H18.7912H18.7912C18.4847 17.1011 18.1772 17.0977 17.8754 17.1457L17.6835 17.2022L17.4641 17.2662L17.2405 17.3369C16.591 17.5379 16.0032 17.7716 15.4146 18.115L15.1517 18.2772C15.0705 18.3253 14.9861 18.3707 14.9015 18.4161L14.9014 18.4161C14.5511 18.6044 14.1988 18.7937 14.0707 19.178C14.2083 19.3173 14.3459 19.4565 14.4838 19.5955L14.6563 19.7692L14.7144 19.8282L14.7144 19.8282L14.7145 19.8282C14.968 20.0855 15.2213 20.3425 15.4936 20.5804L15.4936 20.5804L15.4937 20.5805C15.8991 20.946 16.1019 21.1287 16.2993 21.3172C16.4966 21.5056 16.6886 21.6997 17.0724 22.0877L17.0725 22.0878L17.0726 22.088L17.0727 22.088L17.0729 22.0882L17.0729 22.0883L17.1162 22.1321L17.1162 22.1321L17.1163 22.1321L17.1163 22.1321L17.1163 22.1321L17.1163 22.1321L17.1163 22.1321C17.3095 22.3276 17.5027 22.5232 17.6964 22.7182L17.8461 22.8689C18.224 23.2529 18.6141 23.5999 19.0252 23.9523ZM20.8269 17.016C22.7037 17.2246 24.275 17.8636 25.7814 18.9978C25.6631 19.2593 25.5365 19.4453 25.3331 19.6471L25.1723 19.8073L25.0044 19.9718L24.8429 20.1332C24.5698 20.4036 24.2915 20.6639 23.9997 20.9141C23.638 21.2293 23.2979 21.5612 22.961 21.9026L22.783 22.0817C22.598 22.2677 22.4134 22.4541 22.2288 22.6405C21.9833 22.8884 21.7375 23.136 21.4916 23.3833L21.3207 23.5565C21.1878 23.6901 21.0526 23.8215 20.917 23.9523H20.8269V17.016ZM29.1144 24.5829C28.8763 23.0427 28.2142 21.4174 27.0425 20.3491C26.8452 20.5526 26.6476 20.751 26.4341 20.9376C26.0495 21.2671 25.6819 21.6087 25.323 21.966L25.1304 22.1591L24.7138 22.5754C24.4983 22.7915 24.2828 23.0074 24.0668 23.2229C23.9246 23.3648 23.7824 23.5069 23.6403 23.649L23.4357 23.8538L23.2421 24.0469L23.0579 24.2319C22.9787 24.3113 22.9226 24.3674 22.8678 24.4249C22.7346 24.5643 22.6089 24.7109 22.1781 25.2135L22.1781 25.2135H29.1144V24.5829ZM12.7195 20.3491C13.4349 20.9532 14.1303 21.5776 14.7914 22.2408L15.1071 22.5551C15.424 22.8703 15.7405 23.1858 16.057 23.5014C16.1936 23.6376 16.3303 23.7737 16.4672 23.9098C16.6647 24.1063 16.862 24.303 17.0593 24.4999L17.2461 24.6853L17.4165 24.8557L17.5676 25.0062L17.5676 25.0062C17.6338 25.0791 17.6588 25.1067 17.6683 25.1388C17.674 25.1583 17.674 25.1795 17.674 25.2135H10.7377C10.7377 23.5617 11.4517 21.6719 12.6023 20.4578L12.7195 20.3491ZM29.1144 27.0151H22.1781C22.1781 27.0353 22.1781 27.0514 22.1808 27.067C22.1917 27.1293 22.2461 27.184 22.5167 27.4563L22.6651 27.6042L22.9755 27.9149C23.1389 28.0778 23.3023 28.2407 23.4652 28.4041L23.5697 28.509L23.5698 28.509C24.0168 28.9581 24.4632 29.4065 24.9429 29.8214C25.0434 29.9054 25.143 29.9907 25.2409 30.0779C25.5718 30.4767 25.9053 30.8218 26.2955 31.1617L26.502 31.3391C26.7117 31.5199 26.9218 31.7001 27.1326 31.8796C28.285 30.579 29.1144 28.7625 29.1144 27.0151ZM10.7377 27.0151H17.674C17.3223 27.4254 16.975 27.8177 16.5937 28.1975L16.4437 28.3478C16.3398 28.4517 16.2358 28.5556 16.1317 28.6593C15.9744 28.8161 15.8176 28.9733 15.6609 29.1306C15.1968 29.595 14.732 30.0508 14.2322 30.477C13.9588 30.7164 13.7043 30.9747 13.4493 31.2334L13.3951 31.2884L13.2227 31.462C13.0848 31.601 12.9472 31.7402 12.8096 31.8796C12.4748 31.5657 12.2298 31.2532 11.9932 30.8605L11.8155 30.5688C11.4469 29.9218 11.1865 29.3044 10.9854 28.5859L10.9122 28.3384L10.8433 28.0958L10.7816 27.8795L10.7816 27.8795C10.7695 27.8151 10.7607 27.7684 10.7544 27.7214C10.7377 27.5979 10.7377 27.472 10.7377 27.0151ZM21.2773 25.4837C21.1017 25.1273 20.9131 24.9387 20.5566 24.7631C20.0257 24.6436 19.5491 24.6381 19.0541 24.882C18.7297 25.1487 18.5989 25.3769 18.5066 25.7871C18.4705 26.3279 18.5044 26.7559 18.8563 27.184C19.2844 27.5359 19.7125 27.5699 20.2533 27.5338C20.6635 27.4415 20.8917 27.3107 21.1584 26.9863C21.4022 26.4913 21.3968 26.0146 21.2773 25.4837Z" fill="#FEAA05"/>
<path d="M20.8269 12.8723C20.9006 12.8756 20.9742 12.879 21.0501 12.8824C22.2366 12.9456 23.3097 13.2057 24.4302 13.5929C24.5356 13.6282 24.641 13.6635 24.7497 13.6999C28.0496 14.8819 30.7917 17.4382 32.3406 20.5642C33.0773 22.1864 33.4888 23.8993 33.4686 25.6775C33.4665 25.8771 33.4668 26.0766 33.4674 26.2762C33.4652 27.4687 33.4264 28.7083 33.0048 29.8358C32.9688 29.9371 32.9688 29.9371 32.9321 30.0404C32.8625 30.2338 32.7905 30.4262 32.7177 30.6184C32.6824 30.7147 32.6471 30.8109 32.6107 30.9101C31.5081 33.7394 29.399 36.0663 26.7723 37.5547C26.7183 37.5868 26.6644 37.619 26.6088 37.6521C25.0636 38.5703 23.3401 39.1325 21.5475 39.2663C21.4329 39.2818 21.3183 39.2974 21.2002 39.3134C19.3625 39.5487 17.4348 39.3296 15.6922 38.7258C15.6324 38.7058 15.5725 38.6858 15.5108 38.6653C13.564 38.0119 11.8973 36.9423 10.3774 35.5729C10.3163 35.5185 10.2552 35.464 10.1923 35.4079C9.37517 34.6357 8.68729 33.6576 8.12533 32.6903C8.09449 32.6385 8.06364 32.5868 8.03186 32.5334C6.35371 29.6894 6.02275 26.5259 6.59394 23.3218C6.61136 23.2239 6.62877 23.126 6.64672 23.0251C7.03049 21.2583 7.92578 19.6034 9.02615 18.1871C9.08909 18.1057 9.15203 18.0243 9.21687 17.9404C10.3285 16.542 11.6204 15.4616 13.1699 14.5838C13.2217 14.5544 13.2735 14.5249 13.3269 14.4945C15.6463 13.1968 18.1905 12.7451 20.8269 12.8723ZM14.7013 16.0251C14.5973 16.066 14.4932 16.1069 14.386 16.149C11.8618 17.321 9.93259 19.7903 8.93607 22.3309C8.18356 24.4931 8.13054 26.6019 8.66582 28.8168C8.68077 28.8803 8.69572 28.9439 8.71113 29.0094C9.09975 30.5996 9.94126 32.089 11.008 33.3209C11.0469 33.3666 11.0859 33.4124 11.1261 33.4596C12.6554 35.2458 14.5135 36.3875 16.7732 37.0142C16.8811 37.048 16.989 37.0818 17.1001 37.1166C20.001 37.9518 23.2027 37.307 25.7984 35.9037C26.2356 35.6436 26.6392 35.3416 27.0425 35.0324C27.1805 34.9286 27.1805 34.9286 27.3212 34.8227C29.7492 32.8835 30.9826 30.2484 31.5139 27.2298C31.8162 24.4153 30.9559 21.4933 29.2045 19.2681C28.1027 17.9415 26.8614 16.9085 25.331 16.1152C25.2736 16.0844 25.2161 16.0537 25.157 16.022C24.1129 15.4666 23.065 15.1715 21.9079 14.9441C21.8012 14.922 21.6944 14.8998 21.5845 14.8769C19.3161 14.4622 16.712 14.9225 14.7013 16.0251Z" fill="#05B105"/>
<path d="M27.0425 0.621124C27.2021 1.39541 27.2537 2.15221 27.2511 2.94102C27.2508 3.12542 27.253 3.30969 27.2552 3.49407C27.2654 5.61419 26.5582 7.38831 25.0607 8.90866C24.4665 9.50399 23.8042 9.92864 23.0789 10.35C23.0115 10.3917 22.944 10.4334 22.8745 10.4763C22.288 10.8273 21.6483 11.0467 21.007 11.2752C20.8821 11.3207 20.758 11.3682 20.6344 11.4171C20.3147 11.5434 20.0943 11.6111 19.7459 11.6111C19.5626 10.8335 19.5322 10.0672 19.5323 9.27264C19.5319 9.06785 19.5287 8.86324 19.5253 8.65847C19.5106 6.73751 20.1794 4.80256 21.52 3.39713C22.0277 2.88623 22.5557 2.44349 23.169 2.06244C23.2398 2.01564 23.3107 1.96884 23.3837 1.92063C23.9711 1.54568 24.5867 1.30583 25.2409 1.07153C25.3319 1.03693 25.423 1.00233 25.5168 0.966673C26.0277 0.773693 26.4908 0.621124 27.0425 0.621124Z" fill="#05B105"/>
<path d="M14.0707 6.11612C15.2781 6.21481 16.4703 6.73222 17.3024 7.63625C18.0536 8.56758 18.2439 9.39464 18.2258 10.5695C18.225 10.6698 18.2242 10.7701 18.2233 10.8734C18.2212 11.1193 18.2183 11.3652 18.2145 11.6111C16.9225 11.5043 15.7334 10.8701 14.8815 9.89956C14.6935 9.67015 14.5557 9.44778 14.4311 9.17891C14.396 9.10784 14.3609 9.03677 14.3248 8.96355C13.9492 8.05694 14.0374 7.07831 14.0707 6.11612Z" fill="#05B105"/>
</svg>
